<svg width="299" height="104" viewBox="0 0 299 104" fill="none" xmlns="http://www.w3.org/2000/svg">
<path fill-rule="evenodd" clip-rule="evenodd" d="M61.9335 71.1714V0H0V71.1714C0.00383527 88.7716 13.8669 103.035 30.9675 103.035C48.0666 103.035 61.9291 88.7716 61.9335 71.1714Z" fill="white"/>
<path fill-rule="evenodd" clip-rule="evenodd" d="M39.4785 66.4954C38.7316 64.8391 36.5771 64.811 35.3628 66.0207C34.5507 66.8038 32.7256 67.642 32.076 66.8684C31.9355 66.0168 32.6973 66.1737 33.0329 66.5891C33.2539 66.4633 33.2275 66.148 33.2275 65.9906C33.5631 65.8342 33.9941 65.7316 33.9941 65.3108C33.4648 65.1691 32.7682 65.1287 32.2116 65.3492H32.5467L32.6479 65.4681V65.8638L32.5467 65.9852H32.1642L32.0659 65.8638V65.4681L32.1378 65.3803C31.8952 65.4889 31.6804 65.6453 31.528 65.8801C30.6924 67.3544 32.1895 68.0639 33.216 67.8191C35.1293 67.3815 35.4376 66.409 36.8245 65.927C39.2935 65.3324 39.0657 68.2208 37.3164 68.245H30.8947C29.9857 68.245 29.27 67.2996 29.0605 66.2112C29.1209 65.8056 29.0533 65.6097 28.8016 65.2871L28.8884 64.6994L27.395 64.7858L25.5469 65.1391C25.4328 65.5441 25.5862 65.775 25.6662 66.0602L26.0608 66.0439C26.276 66.3064 26.0872 66.3725 25.9395 66.5038L25.6845 66.6182C25.6346 67.0766 25.6662 67.4639 25.904 67.4974L26.3441 67.1703C26.5848 67.1328 26.6859 67.4974 26.6457 67.6751C26.4966 67.9065 26.1759 68.1364 25.8897 68.2346L23.7501 68.128C23.4931 68.0116 23.0846 67.2315 22.8934 67.3919C22.6465 67.5981 22.6858 68.2592 22.6182 68.5563L24.5401 69.2337L24.9064 69.845L25.9069 69.7044C26.6485 69.6338 26.9276 70.2368 26.6457 70.887C26.4088 71.7431 25.3062 72.7674 24.5109 72.7402L24.4298 73.6476H25.8259L26.1811 73.0974C26.5604 72.8986 27.2699 72.7299 27.5863 72.2675C27.5589 71.8492 28.3059 71.3133 28.9219 71.4505L30.0212 71.7357C30.3611 71.3444 31.3798 71.1046 32.261 71.1224L33.2059 71.188C32.7984 71.9691 31.9882 72.4185 31.2523 73.0111C30.9206 73.6234 31.785 73.6767 32.1642 73.6234L32.7812 73.3703L33.5377 72.4427C33.9941 72.0253 34.3987 71.9459 34.6782 72.348C35.2093 71.969 36.0972 71.819 36.8245 72.0149C37.5685 72.4708 37.0091 72.8917 36.5508 72.8206C36.0723 73.2588 36.4726 73.5005 36.7813 73.6234L37.7737 73.5474L38.0144 72.7299L37.8466 71.188L36.4506 70.6611L36.4726 69.2465C37.8466 68.8474 39.9579 68.5864 39.4785 66.4954ZM26.6989 69.5564L26.5992 69.6723H26.2156L26.1183 69.5564V69.1622L26.2156 69.0432H26.5992L26.6989 69.1622V69.5564ZM27.7464 70.6329L27.6472 70.7538H27.2675L27.1673 70.6329V70.2407L27.2675 70.1228H27.6472L27.7464 70.2407V70.6329ZM27.7464 68.6589L27.6472 68.7758H27.2675L27.1673 68.6589V68.2602L27.2675 68.1408H27.6472L27.7464 68.2602V68.6589ZM27.7464 66.5842L27.6472 66.7051H27.2675L27.1673 66.5842V66.1885L27.2675 66.074H27.6472L27.7464 66.1885V66.5842ZM28.0408 67.4891V67.0899L28.141 66.9705H28.523L28.6251 67.0899V67.4891L28.523 67.6026H28.141L28.0408 67.4891ZM28.7972 69.6452L28.6971 69.767H28.3159L28.2177 69.6452V69.2505L28.3159 69.135H28.6971L28.7972 69.2505V69.6452ZM29.0887 68.2602L29.1889 68.1408H29.5725L29.6722 68.2602V68.6589L29.5725 68.7758H29.1889L29.0887 68.6589V68.2602ZM29.7585 70.6329L29.6621 70.7538H29.2786L29.1765 70.6329V70.2407L29.2786 70.1228H29.6621L29.7585 70.2407V70.6329ZM30.7235 69.6452L30.6195 69.767H30.2408L30.1396 69.6452V69.2505L30.2408 69.135H30.6195L30.7235 69.2505V69.6452ZM31.5966 70.6329L31.4954 70.7538H31.1152L31.015 70.6329V70.2407L31.1152 70.1228H31.4954L31.5966 70.2407V70.6329ZM32.6479 69.5564L32.5467 69.6723H32.1642L32.0659 69.5564V69.1622L32.1642 69.0432H32.5467L32.6479 69.1622V69.5564ZM34.4835 71.5329L34.3829 71.6557H34.0022L33.903 71.5329V71.1411L34.0022 71.0257H34.3829L34.4835 71.1411V71.5329ZM34.5698 69.5564L34.4725 69.6723H34.088L33.9878 69.5564V69.1622L34.088 69.0432H34.4725L34.5698 69.1622V69.5564ZM35.6188 70.6329L35.521 70.7538H35.1384L35.0392 70.6329V70.2407L35.1384 70.1228H35.521L35.6188 70.2407V70.6329ZM37.6481 72.8705V73.2662L37.5513 73.3831H37.1706L37.0695 73.2662V72.8705L37.1706 72.7511H37.5513L37.6481 72.8705ZM36.9626 71.5038L37.0623 71.3829H37.4449L37.5479 71.5038V71.898L37.4449 72.0149H37.0623L36.9626 71.898V71.5038ZM39.1535 90.8866C41.109 90.1144 42.9542 89.067 44.6547 87.7861L42.1268 90.5545L42.1248 90.5555C40.8975 91.2211 39.6238 91.7801 38.316 92.2246L39.1535 90.8866ZM37.7527 90.331L37.1725 90.5111L36.7042 88.9086L37.266 88.7339C37.709 88.5963 38.2139 88.6491 38.3917 89.2539C38.5557 89.8194 38.1832 90.1983 37.7527 90.331ZM39.6343 89.702C39.165 89.8978 38.687 89.7113 38.4928 89.2219C38.2977 88.7245 38.5221 88.2672 38.9919 88.0713C39.4632 87.8735 39.9354 88.0422 40.13 88.5371C40.3242 89.027 40.1066 89.5041 39.6343 89.702ZM41.5673 88.7783C41.3631 88.8898 41.1162 88.9254 40.9211 88.8578L41.0251 88.4981C41.1416 88.5494 41.3041 88.5464 41.4148 88.4848C41.5208 88.4265 41.5937 88.3338 41.5318 88.2154C41.4743 88.1029 41.3468 88.1276 41.1253 88.167C40.911 88.206 40.6799 88.2109 40.5404 87.9445C40.3716 87.6174 40.5903 87.3248 40.8573 87.1783C41.0193 87.0904 41.2336 87.0534 41.4206 87.1033L41.3228 87.4644C41.2245 87.4185 41.0917 87.4279 41.003 87.4758C40.9139 87.5246 40.818 87.6174 40.8784 87.7343C40.9282 87.832 41.0294 87.8172 41.189 87.7851C41.4148 87.7447 41.7102 87.6924 41.8626 87.986C42.0376 88.3264 41.8516 88.6224 41.5673 88.7783ZM42.8929 87.9894C42.5324 88.2238 42.1651 88.1394 41.957 87.7999L41.4177 86.9212L41.7466 86.7066L42.2687 87.5582C42.3617 87.7092 42.5194 87.8019 42.7054 87.681C42.8938 87.5592 42.8785 87.3736 42.7845 87.2227L42.2615 86.3711L42.5932 86.155L43.1326 87.0347C43.3406 87.3736 43.25 87.756 42.8929 87.9894ZM43.704 87.3914L42.749 86.0425L43.0664 85.8057L43.8205 86.8689L44.3273 86.488L44.5286 86.7712L43.704 87.3914ZM37.3547 89.067L37.1687 89.1252L37.442 90.0621L37.6208 90.0069C37.8893 89.9245 38.1036 89.734 37.9991 89.3758C37.8941 89.0166 37.6141 88.9875 37.3547 89.067ZM34.2319 84.999C34.0722 85.0271 33.983 85.1613 34.0104 85.3271C34.0367 85.4845 34.1623 85.5812 34.3201 85.555C34.4778 85.5269 34.5689 85.3937 34.5425 85.2314C34.5171 85.0804 34.3929 84.9699 34.2319 84.999ZM30.3338 85.2772C30.1185 85.2689 30.0639 85.6152 30.0548 85.8362C30.0457 86.0642 30.074 86.413 30.2897 86.4224C30.5011 86.4318 30.5543 86.0849 30.5634 85.857C30.5716 85.6354 30.5467 85.2866 30.3338 85.2772ZM35.4874 87.1906C36.8701 86.8541 38.2018 86.3607 39.4713 85.7287L36.5598 88.0516C35.3819 88.3974 34.1642 88.6347 32.9178 88.7492L34.8724 87.4531L35.4874 87.1906ZM24.8642 85.7277L24.4806 85.5895L24.8954 84.3659L24.5118 84.4982L24.4078 84.1464L25.0766 83.9362L25.4294 84.063L24.8642 85.7277ZM26.4108 86.1816L26.0181 86.0765L26.3321 84.8218L25.9606 84.9847L25.8283 84.6442L26.4789 84.3763L26.8389 84.471L26.4108 86.1816ZM28.9895 86.64L28.584 86.5902L28.7364 85.3019L28.3883 85.5155L28.2133 85.1948L28.8246 84.8416L29.1957 84.8865L28.9895 86.64ZM30.2753 86.7806C29.7887 86.7609 29.6199 86.3203 29.6381 85.8205C29.6583 85.3226 29.8615 84.9042 30.3472 84.924C30.8319 84.9447 30.9987 85.3769 30.9776 85.8747C30.9604 86.3745 30.759 86.8013 30.2753 86.7806ZM32.8037 86.674L32.691 85.3799L32.3938 85.6636L32.157 85.3863L32.6838 84.9087L33.0564 84.8741L33.2093 86.6355L32.8037 86.674ZM34.846 85.7371L34.5406 86.4387L34.0549 86.5245L34.3767 85.8486L34.3795 85.8402C34.3484 85.8589 34.3019 85.8738 34.2635 85.8807C33.9658 85.9339 33.6676 85.7509 33.6105 85.4095C33.5449 85.0138 33.8061 84.7242 34.1734 84.6595C34.5444 84.5929 34.8815 84.7824 34.9443 85.1647C34.9793 85.371 34.9299 85.5447 34.846 85.7371ZM36.0186 86.1037L35.5613 86.2275L35.8858 84.6837L35.1001 84.8959L35.0109 84.548L36.2185 84.2214L36.3005 84.547L36.0186 86.1037ZM37.5561 85.628L37.1102 85.7874L37.3164 84.2253L36.5508 84.5002L36.4362 84.1617L37.6117 83.7393L37.7172 84.0546L37.5561 85.628ZM22.854 88.4443L22.6838 88.3673L22.5472 88.6846L22.6992 88.7532C22.8023 88.7981 22.9417 88.8306 23.0002 88.693C23.0549 88.5642 22.947 88.4877 22.854 88.4443ZM24.1974 88.9929C23.9687 88.9096 23.7491 89.0324 23.6642 89.2762C23.577 89.5283 23.6733 89.7676 23.9001 89.851C24.1293 89.9343 24.3522 89.8125 24.439 89.5613C24.5238 89.3176 24.427 89.0773 24.1974 88.9929ZM17.8945 85.9966L18.0786 85.4894L17.6175 85.7558L17.8945 85.9966ZM20.0595 86.8743C19.8544 86.7367 19.6123 86.8033 19.4737 87.0209C19.3304 87.2449 19.3697 87.5009 19.572 87.6381C19.7743 87.7738 20.0193 87.7102 20.1626 87.4862C20.3017 87.2696 20.2638 87.0125 20.0595 86.8743ZM27.9487 89.9343C27.7076 89.8988 27.5163 90.0661 27.4803 90.3217C27.4448 90.5861 27.5844 90.8012 27.8241 90.8377C28.0638 90.8723 28.2589 90.7065 28.2963 90.442C28.3308 90.184 28.1894 89.9694 27.9487 89.9343ZM29.2345 88.7453C27.9847 88.6303 26.765 88.391 25.5833 88.0392L22.6464 85.6986C23.9159 86.3351 25.2492 86.8344 26.6323 87.1753L27.289 87.456L29.2345 88.7453ZM16.5158 85.5175L17.243 84.7794L17.2402 84.775L16.2525 85.2467L16.08 85.0676L16.5431 84.059L16.5393 84.0546L15.823 84.8041L15.591 84.5658L16.6121 83.5154L16.9611 83.8755L16.5393 84.7878L16.544 84.7937L17.4213 84.3482L17.7776 84.7148L16.7574 85.7652L16.5158 85.5175ZM17.6894 86.5763L17.7876 86.2798L17.3614 85.9088L17.0977 86.0598L16.8092 85.8071L18.2023 85.0794L18.4603 85.3039L17.9846 86.8334L17.6894 86.5763ZM18.1597 86.9562L18.8495 86.0154L18.525 85.7622L18.7038 85.5175L19.6329 86.2403L19.4536 86.4855L19.1271 86.2319L18.4368 87.1728L18.1597 86.9562ZM20.4752 87.6968C20.2245 88.0891 19.7743 88.166 19.397 87.911C19.0216 87.6569 18.9123 87.2019 19.163 86.8097C19.4162 86.412 19.8544 86.3504 20.2307 86.6045C20.609 86.8595 20.7283 87.2992 20.4752 87.6968ZM21.1622 88.9702C20.7556 88.7522 20.6017 88.316 20.8132 87.9026C21.027 87.4812 21.4666 87.3761 21.8554 87.5863C22.0548 87.6944 22.2073 87.8631 22.2591 88.0244L21.9475 88.1483C21.924 88.0447 21.8482 87.9391 21.7236 87.8715C21.5083 87.755 21.2605 87.8434 21.1411 88.0787C21.0179 88.3195 21.0682 88.5672 21.3199 88.7014C21.3918 88.7408 21.4647 88.765 21.5294 88.77L21.6512 88.5316L21.4081 88.4004L21.5386 88.1453L22.0649 88.4295L21.7107 89.1222C21.552 89.1222 21.3578 89.0773 21.1622 88.9702ZM22.9835 89.808L22.61 89.6393L22.5573 88.9702L22.448 88.9219L22.2183 89.4617L21.9048 89.3186L22.4854 87.9613L22.9882 88.1902C23.2423 88.3047 23.4509 88.5183 23.3171 88.8287C23.2404 89.0097 23.0793 89.0931 22.8881 89.0709L22.9835 89.808ZM23.7937 90.1588C23.3709 90.0029 23.1613 89.5895 23.3133 89.1489C23.4691 88.7014 23.8805 88.5346 24.3033 88.69C24.7285 88.8469 24.9438 89.2436 24.7889 89.6896C24.6355 90.1307 24.2194 90.3143 23.7937 90.1588ZM25.1533 90.5975C24.9562 90.5402 24.776 90.408 24.6887 90.2422L24.972 90.0755C25.0147 90.1801 25.1207 90.2807 25.2305 90.3118C25.3326 90.3404 25.4337 90.3266 25.4659 90.2121C25.4951 90.1036 25.3973 90.038 25.2305 89.925C25.0713 89.8164 24.9174 89.6709 24.9874 89.4133C25.0732 89.0961 25.3872 89.0458 25.6461 89.1198C25.8038 89.1647 25.9635 89.2762 26.0536 89.4252L25.7775 89.5959C25.742 89.5061 25.649 89.4261 25.5632 89.403C25.4769 89.3763 25.3609 89.3763 25.3302 89.4893C25.3043 89.5845 25.38 89.6393 25.4975 89.7187C25.671 89.8352 25.8916 89.9881 25.8139 90.2723C25.7247 90.6014 25.4285 90.6744 25.1533 90.5975ZM26.9482 90.5225C26.8811 90.8555 26.5891 90.9483 26.3106 90.8881C26.1102 90.8442 25.9242 90.7233 25.8273 90.5649L26.0992 90.3789C26.1476 90.482 26.2588 90.5752 26.3705 90.5994C26.4746 90.6221 26.5728 90.6014 26.5982 90.485C26.6203 90.3744 26.5201 90.3152 26.348 90.2141C26.1821 90.1154 26.0205 89.9822 26.0747 89.7197C26.1408 89.399 26.451 89.328 26.7133 89.3852C26.872 89.4197 27.0378 89.5209 27.1371 89.6645L26.872 89.8519C26.8288 89.7631 26.7344 89.6916 26.6466 89.6728C26.5604 89.6531 26.4443 89.66 26.4199 89.775C26.4007 89.8707 26.4774 89.9186 26.6011 89.9916C26.7799 90.0957 27.0086 90.2338 26.9482 90.5225ZM27.7795 91.1594C27.3356 91.0948 27.0479 90.7317 27.1131 90.2674C27.1769 89.7977 27.5479 89.551 27.9928 89.6156C28.4392 89.6802 28.7282 90.0246 28.6635 90.4953C28.5997 90.9586 28.2268 91.225 27.7795 91.1594ZM23.0094 90.8782L23.8483 92.2192C22.5309 91.7688 21.2442 91.2023 20.0078 90.5274L17.4506 87.7309C19.1683 89.0324 21.0328 90.0957 23.0094 90.8782ZM14.6724 85.2866L18.8466 89.8549C15.8714 88.0195 13.2261 85.5427 11.1579 82.57L11.1239 85.1263L8.95068 85.1095C12.4954 90.0799 17.5024 93.7581 22.9916 95.629L24.4452 92.4121L24.4409 92.4112L23.6278 91.1136C25.1916 91.678 26.8216 92.0688 28.501 92.2651L30.061 88.8119L30.0638 88.8094L30.062 88.8084L30.0638 88.8055H30.0576L28.0316 87.4625C29.0034 87.6228 29.9953 87.7062 31.005 87.7062H31.1756C32.1742 87.7062 33.1556 87.6258 34.1163 87.4674L32.0975 88.8065V88.8074L33.6604 92.2676C35.3407 92.0737 36.9717 91.6844 38.5355 91.119L37.7253 92.4161H37.7262L37.7239 92.4171L39.177 95.6335C44.6638 93.7675 49.6698 90.0947 53.2165 85.1302L51.1243 85.0083L51.0093 82.5907C48.9344 85.5693 46.2794 88.0476 43.2932 89.8801L47.7617 85.0261L47.7953 84.9916L47.7944 84.9896L45.6092 82.4753C43.3416 84.8149 40.6449 86.6084 37.6755 87.685L42.3482 83.985L42.3717 83.9693L40.1238 81.3819C37.4842 83.13 34.4342 84.1454 31.1756 84.1454H31.005C27.7383 84.1454 24.6811 83.1241 22.0366 81.3666L19.7887 83.9525L19.7877 83.955L19.828 83.9831L24.4696 87.6717C21.5055 86.5911 18.8165 84.7962 16.5551 82.4565L14.368 84.9728C14.4682 85.0779 14.5693 85.1825 14.6724 85.2866ZM20.4512 78.3056C19.7359 78.8133 19.1928 80.0296 18.956 81.2122C18.2325 80.3241 17.2636 79.5643 16.4438 79.4528C16.29 80.3118 16.7181 81.5319 17.3403 82.5286C17.2445 82.5158 17.1471 82.5073 17.0517 82.4995C17.3969 82.8428 17.8806 83.3175 18.2589 83.6609C18.2618 83.6614 18.268 83.6624 18.2728 83.6624C18.1204 83.2583 18.1798 83.13 18.1798 83.13C18.3092 83.281 18.3946 83.5686 18.4276 83.6925C18.4914 83.7058 18.5403 83.7161 18.5988 83.728C18.7882 83.613 19.0116 83.613 19.1985 83.7048L19.3049 83.6027C19.2009 83.4719 19.0743 83.3081 18.9315 83.1177C18.8155 83.1428 18.5168 83.2001 18.3217 83.1478C18.3217 83.1478 18.4137 83.0363 18.8366 82.9909C18.6846 82.7856 18.5159 82.5557 18.337 82.3085C18.199 82.3386 17.8663 82.3983 17.6477 82.3401C17.6477 82.3401 17.745 82.2118 18.2316 82.159C18.1558 82.0544 18.0801 81.9483 18.0029 81.8383C17.9272 81.7317 17.8591 81.634 17.7896 81.5354C17.6409 81.5694 17.2339 81.6464 16.9712 81.5768C16.9712 81.5768 17.0863 81.4229 17.6702 81.3642C17.5014 81.1209 17.3523 80.9053 17.2248 80.7159C17.1026 80.743 16.8135 80.7938 16.6251 80.744C16.6251 80.744 16.7171 80.6325 17.139 80.5876C16.8576 80.1618 16.6768 79.8618 16.5632 79.6235C16.72 79.7932 16.9487 80.068 17.2704 80.4889C17.4425 80.0912 17.5738 80.034 17.5738 80.034C17.5618 80.2338 17.4271 80.4983 17.3639 80.6108C17.5014 80.7938 17.6567 81.005 17.8269 81.2423C18.0604 80.6951 18.2369 80.6305 18.2369 80.6305C18.2206 80.9053 18.0283 81.2694 17.9501 81.4125C18.0201 81.5112 18.0892 81.6089 18.1659 81.7164C18.2426 81.8255 18.3164 81.9296 18.3893 82.0357C18.5849 81.5827 18.7326 81.528 18.7326 81.528C18.7201 81.7549 18.5676 82.0544 18.4938 82.1866C18.6688 82.4368 18.8294 82.6722 18.9703 82.8843C19.141 82.495 19.2714 82.4378 19.2714 82.4378C19.2585 82.6386 19.1218 82.9055 19.059 83.0185C19.1885 83.2114 19.2987 83.3831 19.3869 83.5237L19.5193 83.3969C19.5145 83.2198 19.5739 83.0417 19.7048 82.9114C19.7115 82.8478 19.7168 82.7915 19.7259 82.722C19.6214 82.6524 19.3817 82.4783 19.2824 82.3056C19.2824 82.3056 19.4191 82.2868 19.746 82.5606C19.7786 82.3046 19.8189 82.0214 19.8625 81.7174C19.7398 81.634 19.4718 81.4392 19.3596 81.2438C19.3596 81.2438 19.5154 81.2236 19.8898 81.5349C19.909 81.4061 19.9263 81.2788 19.9483 81.1456C19.9675 81.0144 19.9867 80.894 20.0068 80.7741C19.8726 80.6843 19.5408 80.4489 19.4061 80.2116C19.4061 80.2116 19.5921 80.1869 20.0404 80.5639C20.0879 80.2733 20.1334 80.0138 20.1751 79.7858C20.0687 79.7153 19.8318 79.5426 19.7331 79.3714C19.7331 79.3714 19.8716 79.3526 20.2053 79.6319C20.3045 79.1084 20.3865 78.7561 20.4522 78.5336C20.456 78.7961 20.4287 79.1479 20.364 79.658C20.7657 79.4987 20.8913 79.5598 20.8913 79.5598C20.7446 79.6921 20.4661 79.7819 20.3448 79.8149C20.3146 80.0434 20.2782 80.3063 20.2345 80.6004C20.7801 80.3804 20.9517 80.4637 20.9517 80.4637C20.7475 80.6493 20.3501 80.7686 20.2024 80.8086C20.1852 80.929 20.1669 81.0469 20.1468 81.1782C20.1262 81.3124 20.1051 81.4426 20.0859 81.5714C20.5413 81.3903 20.6857 81.4599 20.6857 81.4599C20.516 81.6143 20.1914 81.715 20.0567 81.753C20.0068 82.0569 19.9584 82.3391 19.9138 82.5937C20.3146 82.4324 20.4402 82.493 20.4402 82.493C20.2902 82.6317 19.9977 82.721 19.8836 82.7521C19.8817 82.7659 19.8788 82.7752 19.8774 82.7896C19.9809 82.7397 20.0931 82.7274 20.2024 82.7358L20.9278 82.0362C21.1675 80.7301 21.0529 79.1163 20.4512 78.3056ZM14.8325 83.7956L15.2918 83.3491C14.8627 83.2642 14.555 83.1882 14.3316 83.1093C14.5583 83.1147 14.9093 83.1438 15.4242 83.207C15.2684 82.795 15.3283 82.6647 15.3283 82.6647C15.4251 82.7772 15.497 82.9677 15.5416 83.1083L16.1941 82.4763C15.3546 82.5064 14.5583 82.6929 14.0688 83.0792C14.2448 83.3427 14.5118 83.5839 14.8325 83.7956ZM15.8613 79.026C15.7573 78.7793 15.4807 78.6658 15.24 78.7709C15.0003 78.878 14.8901 79.1632 14.9922 79.4103C15.0962 79.657 15.3728 79.7705 15.6135 79.6654C15.8532 79.5589 15.9635 79.2737 15.8613 79.026ZM17.2531 78.4117C17.15 78.164 16.871 78.0506 16.6322 78.1566C16.3916 78.2617 16.2808 78.5489 16.3844 78.7956C16.4865 79.0413 16.7655 79.1562 17.0052 79.0497C17.2445 78.9436 17.3557 78.6574 17.2531 78.4117ZM15.0871 76.2033C15.1341 76.3138 15.1816 76.4253 15.2329 76.5482C15.2856 76.671 15.334 76.7914 15.3819 76.9103C15.671 76.5137 15.8259 76.4939 15.8259 76.4939C15.7641 76.7105 15.5517 76.9696 15.4524 77.0811C15.568 77.3652 15.6749 77.6307 15.7674 77.8705C16.0181 77.5286 16.1557 77.5029 16.1557 77.5029C16.1011 77.6963 15.9098 77.9252 15.8249 78.021C16.0555 78.6199 16.1912 79.0215 16.1615 79.0344C16.1303 79.0487 15.9424 78.6727 15.6782 78.0881C15.5608 78.0866 15.2573 78.0742 15.078 77.9805C15.078 77.9805 15.1916 77.8922 15.6145 77.944C15.5095 77.7091 15.3949 77.4476 15.2736 77.1644C15.1327 77.1625 14.7937 77.1457 14.5928 77.0386C14.5928 77.0386 14.716 76.9355 15.2017 76.9947C15.1513 76.8758 15.0996 76.7549 15.0478 76.6301C14.9965 76.5082 14.95 76.3972 14.9054 76.2867C14.7525 76.2847 14.3397 76.2689 14.0971 76.1411C14.0971 76.1411 14.2429 76.0178 14.8244 76.0928C14.7112 75.817 14.6139 75.5733 14.53 75.3591C14.4035 75.3572 14.112 75.3423 13.9389 75.2506C13.9389 75.2506 14.0526 75.1623 14.4735 75.215C14.2904 74.7345 14.1786 74.4 14.1192 74.1439C14.2347 74.3437 14.4006 74.6644 14.6221 75.1485C14.8762 74.7986 15.0157 74.774 15.0157 74.774C14.962 74.9654 14.7736 75.1923 14.6868 75.2891C14.7817 75.4982 14.8882 75.739 15.0047 76.0084C15.3484 75.5288 15.5344 75.5057 15.5344 75.5057C15.4596 75.7691 15.1955 76.0824 15.0871 76.2033ZM13.8493 73.4527C13.7783 73.1946 13.5171 73.0436 13.2654 73.1186C13.0137 73.1922 12.8689 73.4611 12.9398 73.7191C13.0122 73.9776 13.2735 74.1281 13.5252 74.0536C13.7745 73.9806 13.9217 73.7117 13.8493 73.4527ZM15.3067 73.0269C15.2353 72.7683 14.974 72.6188 14.7233 72.6914C14.472 72.7644 14.3258 73.0353 14.3973 73.2923C14.4692 73.5513 14.7304 73.7013 14.9821 73.6283C15.2328 73.5548 15.3786 73.2859 15.3067 73.0269ZM14.4461 70.7183C14.0655 69.6294 13.4102 68.5725 12.6776 68.1768C12.2457 68.9288 12.2385 70.2269 12.4892 71.3819C11.4201 70.8081 10.0926 70.4647 9.23496 70.7395C9.55664 72.0302 11.4484 73.5035 12.8171 73.8484C12.8041 73.8202 12.785 73.798 12.7759 73.767C12.6939 73.4694 12.8334 73.1724 13.0851 73.0279C13.0703 73.0205 13.0602 73.0155 13.0467 73.0071C12.9508 73.0801 12.703 73.2612 12.5065 73.2977C12.5065 73.2977 12.5362 73.1591 12.9063 72.9331C12.6848 72.8122 12.4398 72.678 12.1766 72.531C12.0644 72.6174 11.7854 72.8157 11.563 72.8591C11.563 72.8591 11.5989 72.6988 12.0198 72.4407C11.9086 72.379 11.7974 72.3144 11.6809 72.2488C11.5697 72.1837 11.4666 72.1259 11.3645 72.0658C11.2422 72.1605 10.9062 72.4072 10.6382 72.4575C10.6382 72.4575 10.6804 72.268 11.1862 71.9616C10.9326 71.8141 10.7091 71.6839 10.5159 71.5679C10.4157 71.6444 10.1765 71.8161 9.98333 71.8521C9.98333 71.8521 10.015 71.713 10.3851 71.486C9.95648 71.2216 9.66978 71.0286 9.47082 70.8624C9.68128 70.9467 10.0015 71.0977 10.4632 71.34C10.456 70.8979 10.5543 70.7977 10.5543 70.7977C10.6257 70.9828 10.6109 71.2827 10.5998 71.412C10.7997 71.5181 11.0256 71.6429 11.2773 71.7835C11.2662 71.187 11.4 71.0508 11.4 71.0508C11.4968 71.3079 11.4738 71.7214 11.4585 71.8857C11.5625 71.9439 11.6661 72.0031 11.7792 72.0677C11.8938 72.1324 12.0031 72.196 12.1129 72.2596C12.1052 71.7648 12.2174 71.6523 12.2174 71.6523C12.2974 71.862 12.2811 72.2009 12.2691 72.3519C12.529 72.5039 12.7696 72.647 12.9849 72.7777C12.9791 72.3435 13.076 72.2439 13.076 72.2439C13.1469 72.4314 13.1316 72.7333 13.1215 72.8611C13.1762 72.8946 13.2208 72.9238 13.2707 72.9548C13.5899 72.8937 13.9078 73.0811 13.9989 73.4097C14.031 73.5247 14.0209 73.6377 13.9936 73.7453C14.0655 73.7507 14.1364 73.7507 14.2112 73.7314C14.275 73.7097 14.3287 73.6742 14.3814 73.6377C14.3906 73.6377 14.4006 73.6337 14.4107 73.6337C14.3359 73.5622 14.275 73.4768 14.2415 73.3732C14.2386 73.3737 14.2304 73.3841 14.2295 73.3841C14.2266 73.3831 14.2338 73.3644 14.2347 73.3589C14.2323 73.3535 14.2285 73.3495 14.2266 73.3421C14.1393 73.0278 14.3004 72.7116 14.5814 72.5789C14.6096 72.5226 14.6341 72.4728 14.6653 72.4096C14.5905 72.3065 14.4236 72.0593 14.3881 71.8615C14.3881 71.8615 14.5209 71.8921 14.7386 72.2646C14.8546 72.0376 14.986 71.7845 15.1288 71.5151C15.0406 71.3923 14.8546 71.1155 14.8153 70.8925C14.8153 70.8925 14.9682 70.927 15.2156 71.3528C15.2765 71.2393 15.3374 71.1258 15.4002 71.0089C15.4635 70.8925 15.5224 70.7854 15.5809 70.6808C15.485 70.5481 15.2525 70.2086 15.2046 69.9387C15.2046 69.9387 15.3868 69.9817 15.6821 70.4958C15.824 70.2397 15.9534 70.0108 16.0685 69.8119C15.9937 69.7073 15.8288 69.4621 15.7923 69.2663C15.7923 69.2663 15.929 69.2973 16.1485 69.6782C16.4175 69.2214 16.6131 68.9204 16.7482 68.7339C16.6644 68.983 16.5191 69.3018 16.29 69.7596C16.72 69.7513 16.8183 69.8544 16.8183 69.8544C16.6361 69.9264 16.3436 69.9116 16.2185 69.8993C16.115 70.104 15.9918 70.3354 15.8523 70.5979C16.4381 70.5841 16.5704 70.7227 16.5704 70.7227C16.3177 70.8249 15.905 70.7977 15.753 70.7829C15.6955 70.888 15.6389 70.9936 15.5761 71.1091C15.5114 71.229 15.4496 71.3424 15.3868 71.4559C15.8767 71.4485 15.987 71.564 15.987 71.564C15.7775 71.6483 15.4395 71.6286 15.299 71.6163C15.1514 71.8847 15.0114 72.1323 14.8838 72.3544C15.3148 72.346 15.4112 72.4481 15.4112 72.4481C15.2247 72.5231 14.9213 72.5044 14.8028 72.4935C14.7971 72.5044 14.7918 72.5137 14.7851 72.5261C15.0814 72.4999 15.3637 72.68 15.4486 72.9864C15.4496 72.9923 15.4486 72.9978 15.4495 73.0037C16.4007 71.9315 17.1975 69.7557 16.8226 68.5207C15.9827 68.7433 15.066 69.693 14.4461 70.7183ZM13.4355 70.5501C13.4686 70.6675 13.5012 70.7844 13.5367 70.9122C13.5732 71.0424 13.6062 71.1663 13.6398 71.2921C13.9754 70.9364 14.1321 70.9374 14.1321 70.9374C14.0444 71.1436 13.8014 71.3715 13.6882 71.4702C13.7673 71.7672 13.8392 72.044 13.9025 72.2947C14.1921 71.9888 14.3335 71.9814 14.3335 71.9814C14.2539 72.1659 14.0363 72.3667 13.9404 72.4501C14.0938 73.0767 14.1786 73.4921 14.1465 73.5015C14.1154 73.5109 13.9754 73.1122 13.7865 72.4989C13.67 72.4822 13.3703 72.4294 13.2045 72.3115C13.2045 72.3115 13.3272 72.2399 13.74 72.347C13.6652 72.1003 13.5842 71.8245 13.4993 71.5285C13.3603 71.5077 13.0266 71.4466 12.8416 71.3143C12.8416 71.3143 12.9758 71.2275 13.4504 71.3518C13.414 71.2265 13.3795 71.0997 13.3435 70.9694C13.308 70.8416 13.2754 70.7257 13.2443 70.6093C13.0932 70.5876 12.6858 70.5165 12.4619 70.3591C12.4619 70.3591 12.622 70.255 13.1886 70.4065C13.1114 70.1188 13.0448 69.8628 12.9883 69.6397C12.8646 69.621 12.5755 69.5672 12.4163 69.4538C12.4163 69.4538 12.5381 69.3827 12.9508 69.4888C12.8281 68.989 12.7596 68.6436 12.7332 68.3801C12.8233 68.5948 12.9465 68.9342 13.1067 69.4429C13.402 69.1296 13.5444 69.1237 13.5444 69.1237C13.4658 69.3067 13.251 69.5065 13.1532 69.5909C13.2217 69.8105 13.2965 70.0646 13.3775 70.3458C13.7793 69.917 13.9672 69.918 13.9672 69.918C13.8593 70.1696 13.5578 70.445 13.4355 70.5501ZM14.0018 65.0517C13.9241 63.8967 13.5731 62.6963 12.9739 62.1091C12.3598 62.7111 12.0078 63.9564 11.9422 65.1391C11.0658 64.2855 9.88023 63.5824 8.98182 63.6056C8.94874 64.9373 10.3779 66.8871 11.6033 67.6035C11.598 67.5734 11.585 67.5463 11.585 67.5137C11.585 67.2049 11.7984 66.9577 12.0769 66.8891C12.0664 66.8787 12.0573 66.8713 12.0462 66.859C11.936 66.9029 11.6478 67.0061 11.4484 66.9868C11.4484 66.9868 11.515 66.862 11.9312 66.7485C11.75 66.5704 11.5505 66.3715 11.3362 66.1549C11.2044 66.2072 10.8841 66.3207 10.6593 66.299C10.6593 66.299 10.7365 66.1549 11.2087 66.0262C11.1186 65.9334 11.0284 65.8416 10.9345 65.7459C10.8434 65.6522 10.7614 65.5658 10.6775 65.4805C10.5351 65.5367 10.1473 65.6813 9.87547 65.6542C9.87547 65.6542 9.96557 65.4824 10.5337 65.3305C10.3294 65.1183 10.1497 64.9289 9.99579 64.7621C9.87737 64.808 9.60122 64.9057 9.40706 64.8869C9.40706 64.8869 9.4737 64.7611 9.89031 64.6467C9.54753 64.2727 9.32414 64.0052 9.17648 63.7896C9.35722 63.9312 9.62424 64.1656 10.0039 64.5287C10.1142 64.1019 10.2374 64.0324 10.2374 64.0324C10.2547 64.2322 10.1617 64.5134 10.1161 64.6363C10.2801 64.7952 10.4642 64.9777 10.6703 65.184C10.818 64.6072 10.9819 64.5144 10.9819 64.5144C11.0064 64.7882 10.8736 65.1795 10.8161 65.334C10.9009 65.4183 10.9853 65.5047 11.0764 65.5984C11.1694 65.6931 11.2581 65.7864 11.3463 65.8782C11.4709 65.3996 11.6085 65.3221 11.6085 65.3221C11.6286 65.5471 11.5241 65.8678 11.4719 66.0094C11.6819 66.2299 11.8756 66.4352 12.0472 66.6217C12.1574 66.2018 12.2783 66.1332 12.2783 66.1332C12.296 66.334 12.202 66.6187 12.1565 66.7401C12.2001 66.788 12.2356 66.8269 12.2759 66.8723C12.5995 66.9019 12.8555 67.1733 12.8555 67.5137C12.8555 67.6326 12.8162 67.7387 12.7615 67.8354C12.8282 67.8606 12.8981 67.8813 12.9739 67.8833C13.041 67.8813 13.1024 67.8606 13.1633 67.8408C13.1724 67.8428 13.1834 67.8418 13.1925 67.8458C13.1397 67.7555 13.1043 67.6573 13.0985 67.5463C13.0952 67.5473 13.0851 67.5547 13.0841 67.5537C13.0822 67.5522 13.0933 67.5369 13.0952 67.5325C13.0952 67.5251 13.0923 67.5201 13.0923 67.5137C13.0923 67.1861 13.331 66.9266 13.6355 66.8787C13.6791 66.8328 13.7155 66.7904 13.7611 66.7401C13.7174 66.6187 13.6216 66.334 13.6407 66.1332C13.6407 66.1332 13.7611 66.2018 13.8704 66.6217C14.0435 66.4352 14.2357 66.2299 14.4452 66.0094C14.3934 65.8678 14.2889 65.5471 14.3095 65.3221C14.3095 65.3221 14.4481 65.3996 14.5722 65.8782C14.6614 65.7864 14.7487 65.6931 14.8407 65.5984C14.9337 65.5047 15.0166 65.4183 15.1015 65.3325C15.044 65.1795 14.9112 64.7882 14.9356 64.5144C14.9356 64.5144 15.1015 64.6072 15.2482 65.184C15.4534 64.9777 15.6389 64.7952 15.8033 64.6353C15.7573 64.5134 15.6629 64.2322 15.6821 64.0324C15.6821 64.0324 15.8038 64.1019 15.9141 64.5287C16.2943 64.1656 16.5623 63.9312 16.7416 63.7896C16.5939 64.0052 16.3719 64.2727 16.0282 64.6467C16.4438 64.7611 16.5119 64.8869 16.5119 64.8869C16.3173 64.9057 16.0402 64.808 15.9232 64.7621C15.7683 64.9289 15.5881 65.1183 15.3848 65.3305C15.9525 65.4824 16.0426 65.6542 16.0426 65.6542C15.7722 65.6813 15.3819 65.5367 15.24 65.4805C15.1581 65.5658 15.0761 65.6522 14.985 65.7459C14.8911 65.8416 14.8 65.9334 14.7098 66.0252C15.1825 66.1549 15.2583 66.299 15.2583 66.299C15.0339 66.3207 14.7141 66.2072 14.5823 66.1549C14.369 66.3715 14.1686 66.5704 13.9869 66.7485C14.4025 66.862 14.4701 66.9868 14.4701 66.9868C14.2697 67.0061 13.9825 66.9029 13.8732 66.859C13.8632 66.8684 13.856 66.8758 13.846 66.8842C14.1384 66.9444 14.3623 67.1965 14.3623 67.5137C14.3623 67.5201 14.3589 67.5251 14.3589 67.5325C15.5579 66.7692 16.9031 64.8988 16.87 63.6056C16.0037 63.5834 14.8681 64.2386 14.0018 65.0517ZM12.7011 67.5137C12.7011 67.2453 12.4892 67.0277 12.2274 67.0277C11.9666 67.0277 11.7552 67.2453 11.7552 67.5137C11.7552 67.7826 11.9666 68.0002 12.2274 68.0002C12.4892 68.0002 12.7011 67.7826 12.7011 67.5137ZM14.2156 67.5137C14.2156 67.2453 14.0036 67.0277 13.7419 67.0277C13.482 67.0277 13.2697 67.2453 13.2697 67.5137C13.2697 67.7826 13.482 68.0002 13.7419 68.0002C14.0036 68.0002 14.2156 67.7826 14.2156 67.5137ZM13.0731 64.6057C13.0741 64.7276 13.0741 64.8494 13.0741 64.9827C13.0741 65.1164 13.0741 65.2461 13.0731 65.3754C13.4897 65.1287 13.6407 65.1736 13.6407 65.1736C13.4993 65.3483 13.2059 65.4982 13.0712 65.5604C13.0693 65.8688 13.0649 66.1564 13.0587 66.4155C13.4183 66.2018 13.5559 66.2344 13.5559 66.2344C13.4312 66.3893 13.168 66.5215 13.0539 66.5748C13.0357 67.2202 13.0065 67.643 12.9739 67.643C12.9408 67.643 12.9116 67.2222 12.8934 66.5788C12.785 66.5289 12.5098 66.3938 12.3832 66.2344C12.3832 66.2344 12.5208 66.2008 12.889 66.4194C12.8828 66.1614 12.878 65.8732 12.8751 65.5648C12.7462 65.5056 12.4417 65.3522 12.2984 65.1736C12.2984 65.1736 12.4508 65.1277 12.8746 65.3803C12.8737 65.2486 12.8727 65.1183 12.8727 64.9827C12.8727 64.8494 12.8727 64.729 12.8737 64.6091C12.7332 64.5455 12.3607 64.3615 12.1867 64.1469C12.1867 64.1469 12.3689 64.0916 12.8746 64.3965C12.8751 64.098 12.879 63.8336 12.8842 63.6031C12.7696 63.5513 12.5074 63.4171 12.3832 63.2637C12.3832 63.2637 12.5208 63.2296 12.889 63.4472C12.9024 62.9326 12.9303 62.5798 12.9739 62.3198C13.0031 62.5507 13.0309 62.9129 13.0501 63.4472C13.4173 63.2296 13.5559 63.2637 13.5559 63.2637C13.4322 63.4171 13.1724 63.5484 13.0559 63.6031C13.0631 63.8326 13.0683 64.098 13.0702 64.3935C13.5727 64.0916 13.751 64.1469 13.751 64.1469C13.5818 64.358 13.2179 64.5381 13.0731 64.6057ZM14.0018 58.9076C13.9241 57.752 13.5731 56.5516 12.9739 55.9645C12.3598 56.5664 12.0078 57.8132 11.9422 58.9944C11.0658 58.1413 9.88023 57.4377 8.98182 57.4614C8.94874 58.7931 10.3779 60.7425 11.6033 61.4594C11.598 61.4293 11.585 61.4021 11.585 61.3691C11.585 61.0607 11.7984 60.813 12.0769 60.7444C12.0664 60.7341 12.0573 60.7267 12.0462 60.7143C11.936 60.7587 11.6478 60.8619 11.4484 60.8421C11.4484 60.8421 11.515 60.7173 11.9312 60.6038C11.75 60.4257 11.5505 60.2269 11.3362 60.0103C11.2044 60.0626 10.8841 60.176 10.6593 60.1548C10.6593 60.1548 10.7365 60.0103 11.2087 59.882C11.1186 59.7887 11.0284 59.6979 10.9345 59.6003C10.8434 59.5075 10.7614 59.4212 10.6775 59.3358C10.5351 59.392 10.1473 59.5346 9.87547 59.5085C9.87547 59.5085 9.96557 59.3378 10.5337 59.1858C10.3294 58.9741 10.1497 58.7847 9.99579 58.6174C9.87737 58.6628 9.60122 58.761 9.40706 58.7413C9.40706 58.7413 9.4737 58.6164 9.89031 58.5025C9.54753 58.128 9.32414 57.8606 9.17648 57.645C9.35722 57.7866 9.62424 58.0214 10.0039 58.3841C10.1142 57.9563 10.2374 57.8882 10.2374 57.8882C10.2547 58.0875 10.1617 58.3692 10.1161 58.4921C10.2801 58.6505 10.4642 58.8335 10.6703 59.0398C10.818 58.463 10.9819 58.3702 10.9819 58.3702C11.0064 58.6441 10.8736 59.0348 10.8161 59.1888C10.9009 59.2741 10.9853 59.3605 11.0764 59.4542C11.1694 59.5489 11.2581 59.6407 11.3463 59.7335C11.4709 59.2544 11.6085 59.1774 11.6085 59.1774C11.6286 59.4024 11.5241 59.7231 11.4719 59.8647C11.6819 60.0833 11.8756 60.2905 12.0472 60.4755C12.1574 60.0571 12.2783 59.9886 12.2783 59.9886C12.296 60.1894 12.202 60.4746 12.1565 60.5954C12.2001 60.6433 12.2356 60.6828 12.2759 60.7276C12.5995 60.7577 12.8555 61.0296 12.8555 61.3691C12.8555 61.4885 12.8162 61.594 12.7615 61.6907C12.8282 61.7159 12.8981 61.7366 12.9739 61.7386C13.041 61.7366 13.1024 61.7159 13.1633 61.6962C13.1724 61.6981 13.1834 61.6972 13.1925 61.7011C13.1397 61.6113 13.1043 61.5126 13.0985 61.4021C13.0952 61.4031 13.0851 61.4105 13.0841 61.4095C13.0822 61.4076 13.0933 61.3928 13.0952 61.3858C13.0952 61.3804 13.0923 61.3755 13.0923 61.3691C13.0923 61.0419 13.331 60.7819 13.6355 60.7341C13.6791 60.6882 13.7155 60.6463 13.7611 60.5954C13.7174 60.4746 13.6216 60.1894 13.6407 59.9886C13.6407 59.9886 13.7611 60.0571 13.8704 60.4755C14.0435 60.2905 14.2357 60.0833 14.4452 59.8647C14.3934 59.7231 14.2889 59.4024 14.3095 59.1774C14.3095 59.1774 14.4481 59.2544 14.5722 59.7335C14.6614 59.6407 14.7487 59.5489 14.8407 59.4542C14.9337 59.3605 15.0166 59.2741 15.1015 59.1888C15.044 59.0348 14.9112 58.6441 14.9356 58.3702C14.9356 58.3702 15.1015 58.463 15.2482 59.0398C15.4534 58.8335 15.6389 58.6505 15.8033 58.4911C15.7573 58.3692 15.6629 58.0875 15.6821 57.8882C15.6821 57.8882 15.8038 57.9563 15.9141 58.3841C16.2943 58.0214 16.5623 57.7866 16.7416 57.645C16.5939 57.8606 16.3719 58.128 16.0282 58.5025C16.4438 58.6164 16.5119 58.7413 16.5119 58.7413C16.3173 58.761 16.0402 58.6628 15.9232 58.6174C15.7683 58.7847 15.5881 58.9741 15.3848 59.1858C15.9525 59.3378 16.0426 59.5085 16.0426 59.5085C15.7722 59.5346 15.3819 59.392 15.24 59.3358C15.1581 59.4212 15.0761 59.5075 14.985 59.6003C14.8911 59.6979 14.8 59.7887 14.7098 59.881C15.1825 60.0103 15.2583 60.1548 15.2583 60.1548C15.0339 60.176 14.7141 60.0626 14.5823 60.0103C14.369 60.2269 14.1686 60.4257 13.9869 60.6038C14.4025 60.7173 14.4701 60.8421 14.4701 60.8421C14.2697 60.8619 13.9825 60.7587 13.8732 60.7143C13.8632 60.7237 13.856 60.7316 13.846 60.741C14.1384 60.7997 14.3623 61.0513 14.3623 61.3691C14.3623 61.3755 14.3589 61.3804 14.3589 61.3858C15.5579 60.6245 16.9031 58.7546 16.87 57.4614C16.0037 57.4387 14.8681 58.0944 14.0018 58.9076ZM12.7011 61.3691C12.7011 61.1011 12.4892 60.8836 12.2274 60.8836C11.9666 60.8836 11.7552 61.1011 11.7552 61.3691C11.7552 61.6384 11.9666 61.856 12.2274 61.856C12.4892 61.856 12.7011 61.6384 12.7011 61.3691ZM14.2156 61.3691C14.2156 61.1011 14.0036 60.8836 13.7419 60.8836C13.482 60.8836 13.2697 61.1011 13.2697 61.3691C13.2697 61.6384 13.482 61.856 13.7419 61.856C14.0036 61.856 14.2156 61.6384 14.2156 61.3691ZM13.0731 58.461C13.0741 58.5829 13.0741 58.7048 13.0741 58.838C13.0741 58.9722 13.0741 59.1014 13.0731 59.2307C13.4897 58.9845 13.6407 59.0294 13.6407 59.0294C13.4993 59.2036 13.2059 59.3536 13.0712 59.4157C13.0693 59.7241 13.0649 60.0122 13.0587 60.2693C13.4183 60.0571 13.5559 60.0902 13.5559 60.0902C13.4312 60.2446 13.168 60.3768 13.0539 60.4306C13.0357 61.0755 13.0065 61.4983 12.9739 61.4983C12.9408 61.4983 12.9116 61.0765 12.8934 60.4341C12.785 60.3843 12.5098 60.2496 12.3832 60.0902C12.3832 60.0902 12.5208 60.0562 12.889 60.2737C12.8828 60.0167 12.878 59.729 12.8751 59.4197C12.7462 59.3605 12.4417 59.2085 12.2984 59.0294C12.2984 59.0294 12.4508 58.9835 12.8746 59.2357C12.8737 59.1044 12.8727 58.9742 12.8727 58.838C12.8727 58.7048 12.8727 58.5849 12.8737 58.463C12.7332 58.4008 12.3607 58.2173 12.1867 58.0027C12.1867 58.0027 12.3689 57.9469 12.8746 58.2518C12.8751 57.9538 12.879 57.6894 12.8842 57.4585C12.7696 57.4072 12.5074 57.273 12.3832 57.119C12.3832 57.119 12.5208 57.0845 12.889 57.3035C12.9024 56.787 12.9303 56.4352 12.9739 56.1756C13.0031 56.4061 13.0309 56.7682 13.0501 57.3035C13.4173 57.0855 13.5559 57.119 13.5559 57.119C13.4322 57.273 13.1724 57.4042 13.0559 57.4585C13.0631 57.6884 13.0683 57.9538 13.0702 58.2489C13.5727 57.9469 13.751 58.0027 13.751 58.0027C13.5818 58.2143 13.2179 58.3934 13.0731 58.461ZM14.0018 52.825C13.9241 51.6695 13.5731 50.4691 12.9739 49.882C12.3598 50.4824 12.0078 51.7297 11.9422 52.9104C11.0658 52.0578 9.88023 51.3552 8.98182 51.3779C8.94874 52.7096 10.3779 54.6599 11.6033 55.3763C11.598 55.3458 11.585 55.3186 11.585 55.2866C11.585 54.9782 11.7984 54.7305 12.0769 54.6619C12.0664 54.6516 12.0573 54.6432 12.0462 54.6318C11.936 54.6762 11.6478 54.7793 11.4484 54.7596C11.4484 54.7596 11.515 54.6338 11.9312 54.5203C11.75 54.3432 11.5505 54.1434 11.3362 53.9278C11.2044 53.9791 10.8841 54.0935 10.6593 54.0713C10.6593 54.0713 10.7365 53.9278 11.2087 53.7985C11.1186 53.7062 11.0284 53.6145 10.9345 53.5168C10.8434 53.424 10.7614 53.3387 10.6775 53.2523C10.5351 53.3095 10.1473 53.4521 9.87547 53.426C9.87547 53.426 9.96557 53.2553 10.5337 53.1033C10.3294 52.8907 10.1497 52.7022 9.99579 52.5349C9.87737 52.5808 9.60122 52.6785 9.40706 52.6588C9.40706 52.6588 9.4737 52.533 9.89031 52.4195C9.54753 52.0455 9.32414 51.7771 9.17648 51.5625C9.35722 51.7041 9.62424 51.9384 10.0039 52.3016C10.1142 51.8748 10.2374 51.8052 10.2374 51.8052C10.2547 52.004 10.1617 52.2867 10.1161 52.4096C10.2801 52.567 10.4642 52.7505 10.6703 52.9573C10.818 52.3805 10.9819 52.2872 10.9819 52.2872C11.0064 52.5611 10.8736 52.9523 10.8161 53.1053C10.9009 53.1916 10.9853 53.277 11.0764 53.3707C11.1694 53.4664 11.2581 53.5582 11.3463 53.65C11.4709 53.1719 11.6085 53.0949 11.6085 53.0949C11.6286 53.3199 11.5241 53.6396 11.4719 53.7812C11.6819 54.0008 11.8756 54.207 12.0472 54.393C12.1574 53.9746 12.2783 53.9061 12.2783 53.9061C12.296 54.1069 12.202 54.392 12.1565 54.5129C12.2001 54.5598 12.2356 54.5993 12.2759 54.6452C12.5995 54.6753 12.8555 54.9461 12.8555 55.2866C12.8555 55.4055 12.8162 55.5106 12.7615 55.6073C12.8282 55.6324 12.8981 55.6541 12.9739 55.6561C13.041 55.6541 13.1024 55.6324 13.1633 55.6122C13.1724 55.6157 13.1834 55.6147 13.1925 55.6176C13.1397 55.5273 13.1043 55.4301 13.0985 55.3186C13.0952 55.3196 13.0851 55.328 13.0841 55.327C13.0822 55.324 13.0933 55.3092 13.0952 55.3033C13.0952 55.2979 13.0923 55.292 13.0923 55.2866C13.0923 54.9594 13.331 54.6994 13.6355 54.6516C13.6791 54.6037 13.7155 54.5637 13.7611 54.5129C13.7174 54.392 13.6216 54.1069 13.6407 53.9061C13.6407 53.9061 13.7611 53.9746 13.8704 54.393C14.0435 54.207 14.2357 54.0008 14.4452 53.7812C14.3934 53.6396 14.2889 53.3199 14.3095 53.0949C14.3095 53.0949 14.4481 53.1719 14.5722 53.65C14.6614 53.5582 14.7487 53.4664 14.8407 53.3707C14.9337 53.277 15.0166 53.1916 15.1015 53.1053C15.044 52.9523 14.9112 52.5611 14.9356 52.2872C14.9356 52.2872 15.1015 52.3805 15.2482 52.9573C15.4534 52.7505 15.6389 52.567 15.8033 52.4086C15.7573 52.2867 15.6629 52.004 15.6821 51.8052C15.6821 51.8052 15.8038 51.8748 15.9141 52.3016C16.2943 51.9384 16.5623 51.7041 16.7416 51.5625C16.5939 51.7771 16.3719 52.0455 16.0282 52.4195C16.4438 52.533 16.5119 52.6588 16.5119 52.6588C16.3173 52.6785 16.0402 52.5808 15.9232 52.5349C15.7683 52.7022 15.5881 52.8907 15.3848 53.1033C15.9525 53.2553 16.0426 53.426 16.0426 53.426C15.7722 53.4521 15.3819 53.3095 15.24 53.2523C15.1581 53.3387 15.0761 53.424 14.985 53.5168C14.8911 53.6145 14.8 53.7062 14.7098 53.7985C15.1825 53.9278 15.2583 54.0713 15.2583 54.0713C15.0339 54.0935 14.7141 53.9791 14.5823 53.9278C14.369 54.1434 14.1686 54.3432 13.9869 54.5203C14.4025 54.6338 14.4701 54.7596 14.4701 54.7596C14.2697 54.7793 13.9825 54.6762 13.8732 54.6318C13.8632 54.6412 13.856 54.6481 13.846 54.6575C14.1384 54.7162 14.3623 54.9688 14.3623 55.2866C14.3623 55.293 14.3589 55.2979 14.3589 55.3033C15.5579 54.541 16.9031 52.6721 16.87 51.3779C16.0037 51.3562 14.8681 52.0119 14.0018 52.825ZM12.7011 55.2866C12.7011 55.0182 12.4892 54.8001 12.2274 54.8001C11.9666 54.8001 11.7552 55.0182 11.7552 55.2866C11.7552 55.555 11.9666 55.773 12.2274 55.773C12.4892 55.773 12.7011 55.555 12.7011 55.2866ZM14.2156 55.2866C14.2156 55.0182 14.0036 54.8001 13.7419 54.8001C13.482 54.8001 13.2697 55.0182 13.2697 55.2866C13.2697 55.555 13.482 55.773 13.7419 55.773C14.0036 55.773 14.2156 55.555 14.2156 55.2866ZM13.0731 52.3765C13.0741 52.4994 13.0741 52.6213 13.0741 52.7555C13.0741 52.8897 13.0741 53.018 13.0731 53.1472C13.4897 52.901 13.6407 52.9469 13.6407 52.9469C13.4993 53.1201 13.2059 53.271 13.0712 53.3332C13.0693 53.6416 13.0649 53.9287 13.0587 54.1863C13.4183 53.9746 13.5559 54.0062 13.5559 54.0062C13.4312 54.1621 13.168 54.2943 13.0539 54.3466C13.0357 54.993 13.0065 55.4158 12.9739 55.4158C12.9408 55.4158 12.9116 54.995 12.8934 54.3516C12.785 54.3008 12.5098 54.167 12.3832 54.0062C12.3832 54.0062 12.5208 53.9727 12.889 54.1912C12.8828 53.9332 12.878 53.6465 12.8751 53.3357C12.7462 53.277 12.4417 53.125 12.2984 52.9469C12.2984 52.9469 12.4508 52.9 12.8746 53.1531C12.8737 53.0219 12.8727 52.8906 12.8727 52.7555C12.8727 52.6213 12.8727 52.5024 12.8737 52.3805C12.7332 52.3173 12.3607 52.1348 12.1867 51.9197C12.1867 51.9197 12.3689 51.8644 12.8746 52.1693C12.8751 51.8713 12.879 51.6068 12.8842 51.3759C12.7696 51.3231 12.5074 51.1904 12.3832 51.0355C12.3832 51.0355 12.5208 51.001 12.889 51.22C12.9024 50.7054 12.9303 50.3527 12.9739 50.0931C13.0031 50.3235 13.0309 50.6857 13.0501 51.22C13.4173 51.0025 13.5559 51.0355 13.5559 51.0355C13.4322 51.1904 13.1724 51.3217 13.0559 51.3759C13.0631 51.6059 13.0683 51.8713 13.0702 52.1644C13.5727 51.8644 13.751 51.9197 13.751 51.9197C13.5818 52.1308 13.2179 52.3109 13.0731 52.3765ZM12.4926 56.1298C12.3943 56.1697 12.2883 56.1934 12.179 56.1934C11.7763 56.1934 11.4283 55.9122 11.3199 55.5229C10.4244 54.9555 9.46271 53.8291 8.96796 52.712L8.3121 52.4402C8.41325 52.8793 8.50148 53.2854 8.57914 53.6643C8.65633 54.0447 8.72582 54.3975 8.78959 54.7266C8.62611 54.8815 8.47844 55.0221 8.34037 55.1523C8.06423 55.4148 7.81783 55.6418 7.54265 55.8865C7.40506 56.0094 7.26122 56.1372 7.10014 56.2758L11.8794 57.5571C12.0151 57.0307 12.2164 56.5274 12.4926 56.1298ZM12.436 62.2636C12.3569 62.2882 12.2759 62.304 12.1929 62.304C11.7902 62.304 11.4412 62.0238 11.3334 61.6335C10.9398 61.3849 10.5351 61.0267 10.1617 60.6112L6.47119 60.3798C6.55605 60.514 6.63179 60.6339 6.69891 60.742C6.83554 60.9566 6.94054 61.1243 7.03642 61.2803C7.08436 61.3562 7.13086 61.4293 7.1764 61.5033C7.36049 61.7988 7.55032 62.0978 7.90844 62.6588H12.2174C12.283 62.5187 12.3569 62.3884 12.436 62.2636ZM44.3982 83.1093L43.029 83.1414L43.8507 82.2567C44.9735 82.9603 46.6279 80.7686 46.3465 79.2737C44.8824 79.0497 42.8277 80.8471 43.5602 81.9715L42.7399 82.8542L42.7054 81.3104C44.0104 81.0168 43.6776 78.2366 42.4446 77.3791C42.4427 77.3791 42.4427 77.3791 42.4427 77.3791C41.2619 78.2805 41.0395 81.0227 42.3037 81.3114L42.331 82.5325L41.4662 81.6819C41.3851 81.602 41.2581 81.6049 41.1818 81.6873C41.1051 81.7712 41.108 81.9005 41.1871 81.9809L42.5669 83.3392L43.2965 84.0566C43.4015 83.9693 43.5065 83.881 43.611 83.7931L43.3603 83.5474L43.9135 83.5341C44.0765 83.3935 44.239 83.2519 44.3982 83.1093ZM45.2803 82.3006C44.9361 82.423 44.6743 82.6386 44.5679 82.9583C44.8076 82.7417 45.0444 82.5222 45.2803 82.3006ZM41.7898 80.3266C41.7898 80.3266 41.9465 80.2752 42.3909 80.5323C42.378 80.3389 42.3674 80.1179 42.3593 79.8736C42.2198 79.8149 41.8386 79.6413 41.6603 79.4276C41.6603 79.4276 41.8386 79.3684 42.3516 79.662C42.3483 79.5746 42.3463 79.4893 42.3435 79.3985C42.3411 79.2391 42.3382 79.0946 42.3372 78.9574C42.215 78.9041 41.9619 78.7803 41.8377 78.6333C41.8377 78.6333 41.9671 78.5898 42.3353 78.7961C42.331 78.1734 42.3502 77.8108 42.4053 77.5621C42.4513 77.7797 42.4973 78.1576 42.5256 78.7897C42.8804 78.5701 43.0098 78.6066 43.0098 78.6066C42.8948 78.7571 42.6527 78.8893 42.5323 78.95C42.5376 79.0882 42.5424 79.2342 42.5458 79.3956C42.5477 79.4819 42.5496 79.5672 42.5506 79.6516C43.0425 79.3423 43.2227 79.3916 43.2227 79.3916C43.0573 79.6082 42.6953 79.7971 42.5525 79.8662C42.5549 80.11 42.5525 80.3315 42.5477 80.5239C42.9748 80.2526 43.1316 80.297 43.1316 80.297C42.9835 80.4889 42.6551 80.6562 42.5434 80.7094C42.5324 81.0311 42.5122 81.23 42.4849 81.2319C42.4576 81.2319 42.4283 81.0341 42.4039 80.7159C42.2979 80.6719 41.9499 80.517 41.7898 80.3266ZM44.567 81.0509C44.5094 80.9083 44.3594 80.5067 44.379 80.2244C44.379 80.2244 44.5478 80.3137 44.7074 80.894C44.7645 80.8313 44.822 80.7686 44.8834 80.704C44.9917 80.5876 45.0881 80.4845 45.1811 80.3858C45.1326 80.26 45.0382 79.9881 45.0517 79.7932C45.0517 79.7932 45.172 79.8672 45.288 80.2733C45.7151 79.8277 45.9774 79.585 46.1888 79.4498C46.0714 79.6358 45.8436 79.9388 45.4289 80.4065C45.8225 80.5086 45.8992 80.628 45.8992 80.628C45.7142 80.6502 45.4519 80.5678 45.3244 80.5229C45.2338 80.6251 45.1374 80.7302 45.0291 80.8471C44.9697 80.9112 44.9121 80.9719 44.8541 81.0321C45.4165 81.1708 45.51 81.3375 45.51 81.3375C45.2429 81.3696 44.8575 81.2413 44.7098 81.1851C44.5434 81.3572 44.391 81.5132 44.2553 81.6464C44.7429 81.7663 44.8239 81.9099 44.8239 81.9099C44.5862 81.94 44.24 81.8186 44.124 81.7757C43.8972 81.9923 43.7458 82.1191 43.7251 82.1003H43.7232C43.704 82.0806 43.8205 81.9202 44.0204 81.678C43.9763 81.5704 43.8363 81.2073 43.8536 80.9571C43.8536 80.9571 43.9994 81.0331 44.1389 81.5383C44.2606 81.3938 44.4059 81.229 44.567 81.0509ZM46.2152 82.6835C46.2665 82.6095 46.3221 82.5419 46.3796 82.4901C46.3796 82.4901 46.406 82.5784 46.3302 82.8044L46.6946 83.1897L46.836 83.1882C46.8868 83.0644 47.0081 82.8009 47.1515 82.6741C47.1515 82.6741 47.1913 82.8083 46.9918 83.1862C47.5959 83.1813 47.9497 83.202 48.1918 83.2593C47.9804 83.3052 47.6131 83.353 46.999 83.3821C47.0627 83.4912 47.104 83.58 47.1313 83.6515L47.4372 83.9747C47.8174 83.7837 48.1472 83.5228 48.3567 83.202H48.3586L48.3567 83.2011C47.8317 82.4723 46.6663 82.0993 45.7559 82.1965L46.2152 82.6835ZM51.9906 77.083C50.7633 76.2147 48.128 76.9158 48.3413 78.2721L46.9324 78.8054L47.429 77.6973C48.7148 77.9859 49.5878 75.3591 48.8491 74.0398C47.3936 74.3166 46.0186 76.7051 47.0657 77.5226L46.567 78.6333L46.0478 77.1832C47.1884 76.4697 45.9985 73.9515 44.5598 73.5538V73.5523C44.5598 73.5538 44.5598 73.5538 44.5598 73.5538C43.7261 74.8001 44.3819 77.4684 45.6686 77.3194L46.0795 78.465L44.9927 77.9484C44.8915 77.9006 44.7731 77.9465 44.7256 78.0496C44.6791 78.1537 44.7237 78.2765 44.8249 78.3244L46.557 79.1479L48.292 79.9713C48.3922 80.0192 48.5115 79.9743 48.558 79.8702C48.6036 79.7661 48.56 79.6432 48.4598 79.5964L47.3734 79.0793L48.4871 78.6574C49.2115 79.7631 51.609 78.5459 51.9906 77.083ZM44.8724 76.5605C44.8724 76.5605 45.0028 76.4584 45.5056 76.5531C45.4328 76.375 45.3522 76.1693 45.2669 75.9418C45.1163 75.9325 44.7007 75.8949 44.4639 75.7533C44.4639 75.7533 44.6163 75.6359 45.1931 75.743C45.1628 75.6621 45.1336 75.5816 45.1029 75.4963C45.0497 75.3463 45.0018 75.2101 44.9572 75.0828C44.8258 75.0725 44.5459 75.0394 44.3829 74.9417C44.3829 74.9417 44.4922 74.8573 44.9049 74.9309C44.7045 74.3427 44.6082 73.9929 44.5813 73.7388C44.6926 73.9293 44.8565 74.2712 45.0828 74.8593C45.3489 74.5342 45.4826 74.5248 45.4826 74.5248C45.4217 74.7054 45.2348 74.9121 45.1394 75.0093C45.1883 75.1381 45.2386 75.2738 45.2923 75.4257C45.3215 75.5081 45.3498 75.5871 45.3781 75.667C45.7453 75.2091 45.9328 75.1963 45.9328 75.1963C45.8436 75.4558 45.5613 75.7558 45.4481 75.8683C45.5258 76.0982 45.5948 76.3084 45.6514 76.492C45.9702 76.0928 46.1308 76.0824 46.1308 76.0824C46.0522 76.3138 45.7943 76.5822 45.7051 76.6696C45.7962 76.9779 45.8398 77.1738 45.8144 77.1832C45.788 77.1926 45.6998 77.0144 45.5756 76.7228C45.462 76.7174 45.0828 76.6863 44.8724 76.5605ZM47.7263 76.3158C47.6271 76.1994 47.3581 75.8713 47.2891 75.5974C47.2891 75.5974 47.4756 75.6256 47.8102 76.1219C47.8457 76.042 47.8792 75.963 47.9166 75.8816C47.9823 75.7351 48.0417 75.6058 48.0978 75.481C48.0125 75.3789 47.8366 75.1529 47.7881 74.9644C47.7881 74.9644 47.9238 74.9945 48.1645 75.3394C48.4272 74.7759 48.5983 74.4582 48.7551 74.2594C48.7028 74.475 48.583 74.8371 48.3375 75.4183C48.7441 75.3838 48.8534 75.4706 48.8534 75.4706C48.6846 75.5535 48.4114 75.5639 48.2776 75.5629C48.223 75.6902 48.1644 75.8224 48.0988 75.969C48.0633 76.0484 48.0278 76.1254 47.9933 76.2013C48.5691 76.1451 48.7105 76.2729 48.7105 76.2729C48.466 76.3918 48.0614 76.3972 47.9041 76.3957C47.802 76.6148 47.7052 76.8127 47.6194 76.9834C48.1189 76.934 48.2411 77.0435 48.2411 77.0435C48.0259 77.1506 47.6596 77.1516 47.5369 77.1487C47.3897 77.4299 47.2881 77.6006 47.2613 77.5902H47.2608C47.2368 77.5769 47.2943 77.3884 47.4075 77.0924C47.3317 77.0041 47.0848 76.708 47.023 76.4648C47.023 76.4648 47.1841 76.4885 47.4746 76.9207C47.546 76.7426 47.6304 76.5378 47.7263 76.3158ZM49.1113 77.4911C49.1113 77.4911 49.2096 77.6258 49.1175 78.1428C49.2906 78.0683 49.4905 77.9859 49.711 77.8981C49.7211 77.7432 49.7575 77.3154 49.8951 77.0717C49.8951 77.0717 50.0078 77.2276 49.9052 77.8221C49.9824 77.791 50.0615 77.7609 50.1439 77.7289C50.2906 77.6736 50.4215 77.6248 50.5476 77.5789C50.5567 77.4442 50.5874 77.1551 50.6823 76.9873C50.6823 76.9873 50.7643 77.1008 50.6943 77.5256C51.2653 77.3194 51.6052 77.2187 51.8511 77.1926C51.6675 77.307 51.3348 77.4758 50.7623 77.7076C51.0797 77.9815 51.0893 78.1201 51.0893 78.1201C50.9119 78.0575 50.7116 77.8641 50.6166 77.7664C50.492 77.8162 50.3597 77.869 50.2139 77.9243C50.1329 77.9543 50.0552 77.9835 49.9781 78.0121C50.4234 78.39 50.4354 78.5824 50.4354 78.5824C50.1828 78.4907 49.8913 78.2006 49.782 78.0846C49.5586 78.164 49.3544 78.2356 49.177 78.2938C49.5643 78.6219 49.5744 78.7867 49.5744 78.7867C49.35 78.7053 49.0892 78.4408 49.0039 78.3491C48.7057 78.4428 48.5154 78.4877 48.5043 78.4616C48.4962 78.4344 48.6683 78.3431 48.9516 78.2159C48.9584 78.0984 48.9881 77.7087 49.1113 77.4911ZM53.4595 70.2856C52.0429 69.8139 49.7125 71.26 50.2921 72.498L49.0892 73.4236L49.2589 72.2138C50.5692 72.1136 50.6785 69.3403 49.6051 68.2928V68.2918C48.2877 68.986 47.6313 71.6774 48.8605 72.1546L48.6923 73.3643L47.7929 72.1264C48.6875 71.1091 46.848 69.0452 45.3599 69.0852H45.3589C44.9059 70.5259 46.2746 72.8902 47.4664 72.3697L48.1764 73.3466L46.9937 73.1724C46.8835 73.1547 46.7814 73.2331 46.7656 73.3456C46.7502 73.4591 46.825 73.5642 46.9362 73.581L48.8251 73.8607L50.7149 74.1419C50.8252 74.1572 50.9273 74.0793 50.9426 73.9658C50.9585 73.8513 50.8818 73.7472 50.7725 73.7314L49.5878 73.5558L50.5385 72.8251C51.539 73.6702 53.4989 71.7993 53.4595 70.2856ZM46.4913 71.8753C46.4913 71.8753 46.5901 71.7401 47.0973 71.6819C46.9789 71.5339 46.8441 71.3597 46.6994 71.1673C46.5527 71.2018 46.1442 71.2882 45.8772 71.2206C45.8772 71.2206 45.9913 71.0651 46.5743 70.9985C46.5225 70.93 46.4716 70.8614 46.4194 70.7884C46.3249 70.6591 46.2425 70.5436 46.1634 70.4341C46.0349 70.4622 45.7578 70.5145 45.5737 70.4677C45.5737 70.4677 45.6567 70.3552 46.0713 70.3043C45.7161 69.8001 45.5272 69.4922 45.4328 69.2579C45.591 69.4069 45.8427 69.6866 46.2228 70.1835C46.3868 69.7942 46.5133 69.7453 46.5133 69.7453C46.5052 69.9358 46.382 70.1894 46.3192 70.3103C46.4012 70.4188 46.487 70.5352 46.581 70.6635C46.6318 70.7351 46.6811 70.8032 46.7291 70.8717C46.9554 70.3241 47.1294 70.2565 47.1294 70.2565C47.1174 70.5333 46.93 70.9028 46.8523 71.0444C46.9909 71.2413 47.1145 71.4224 47.2195 71.5817C47.4147 71.1061 47.5666 71.0484 47.5666 71.0484C47.5551 71.2931 47.3816 71.6257 47.3216 71.7357C47.4938 72.0036 47.5897 72.1792 47.5686 72.195C47.5465 72.2128 47.4118 72.0687 47.2123 71.8245C47.1001 71.8526 46.7291 71.9345 46.4913 71.8753ZM49.1597 70.8032C49.0322 70.7208 48.6846 70.4844 48.5418 70.2427C48.5418 70.2427 48.7297 70.2155 49.187 70.5925C49.1981 70.5061 49.2096 70.4208 49.2215 70.331C49.2441 70.1721 49.2652 70.0295 49.2844 69.8948C49.1741 69.8213 48.9435 69.6555 48.8442 69.4903C48.8442 69.4903 48.9838 69.4784 49.3083 69.7379C49.4047 69.1217 49.4814 68.7665 49.5758 68.5291C49.5859 68.7516 49.5715 69.134 49.4977 69.7636C49.8769 69.6116 50.0063 69.662 50.0063 69.662C49.8678 69.7907 49.6079 69.8805 49.4795 69.92C49.4632 70.0572 49.444 70.2012 49.421 70.3616C49.41 70.4479 49.3965 70.5313 49.3836 70.6147C49.9205 70.3927 50.0898 70.4726 50.0898 70.4726C49.8913 70.6581 49.5049 70.7839 49.3529 70.8278C49.3155 71.0681 49.2781 71.2852 49.2436 71.4747C49.7081 71.2798 49.8548 71.3494 49.8548 71.3494C49.6779 71.5141 49.3289 71.6232 49.2096 71.6577C49.1468 71.97 49.096 72.1625 49.0686 72.1615H49.0677C49.0413 72.1565 49.0437 71.9577 49.07 71.6409C48.9727 71.5788 48.6549 71.3681 48.5264 71.1525C48.5264 71.1525 48.6885 71.1278 49.0868 71.4559C49.106 71.265 49.1295 71.0444 49.1597 70.8032ZM50.8137 71.5225C50.8137 71.5225 50.9446 71.6232 51.0002 72.1452C51.1445 72.0233 51.3137 71.8857 51.5007 71.7357C51.4676 71.5847 51.3837 71.1653 51.4484 70.8905C51.4484 70.8905 51.5999 71.0059 51.6656 71.6069C51.7318 71.5536 51.7984 71.5013 51.8693 71.4485C51.9945 71.3518 52.1076 71.266 52.214 71.1851C52.1857 71.0528 52.1359 70.7666 52.1804 70.5782C52.1804 70.5782 52.2898 70.6626 52.3406 71.0913C52.8291 70.7247 53.1278 70.5293 53.3564 70.4321C53.2117 70.5954 52.9403 70.854 52.4566 71.2462C52.8363 71.415 52.8837 71.5452 52.8837 71.5452C52.6968 71.5368 52.4509 71.41 52.3334 71.3444C52.227 71.4298 52.1148 71.5181 51.9897 71.6138C51.9216 71.6671 51.8549 71.7169 51.7883 71.7672C52.3195 71.9991 52.3852 72.1802 52.3852 72.1802C52.1172 72.1659 51.7576 71.974 51.62 71.8931C51.4288 72.0366 51.2528 72.1639 51.0984 72.272C51.5606 72.4728 51.6171 72.6292 51.6171 72.6292C51.3793 72.6174 51.0567 72.4388 50.9484 72.3761C50.6876 72.5532 50.5183 72.6519 50.502 72.6302C50.4853 72.608 50.6248 72.4688 50.8616 72.2636C50.8343 72.1491 50.7561 71.7672 50.8137 71.5225ZM46.7176 66.3779C46.7176 66.3779 46.7948 66.2299 47.2895 66.0987C47.1519 65.968 46.9947 65.816 46.824 65.6453C46.6845 65.7025 46.2919 65.8461 46.0196 65.8209C46.0196 65.8209 46.1097 65.6492 46.6764 65.4972C46.6174 65.4375 46.557 65.3764 46.4951 65.3127C46.3849 65.1992 46.2856 65.0961 46.1936 64.9984C46.0704 65.0463 45.8034 65.1381 45.615 65.1193C45.615 65.1193 45.6806 64.9965 46.0843 64.884C45.6624 64.436 45.4337 64.1602 45.3062 63.9416C45.4846 64.0664 45.7717 64.3062 46.2161 64.7424C46.3255 64.3324 46.4443 64.2657 46.4443 64.2657C46.4616 64.4572 46.3758 64.7246 46.3293 64.8539C46.4266 64.9496 46.5273 65.0517 46.638 65.1652C46.6984 65.2283 46.756 65.288 46.814 65.3492C46.9607 64.7734 47.1246 64.6822 47.1246 64.6822C47.1505 64.957 47.0153 65.3512 46.9597 65.5022C47.1237 65.6773 47.2713 65.8377 47.3983 65.9803C47.5239 65.4805 47.6658 65.4005 47.6658 65.4005C47.6889 65.6453 47.5642 66 47.5192 66.1179C47.7272 66.3582 47.8466 66.5166 47.8274 66.5363C47.8073 66.5561 47.6553 66.4352 47.4228 66.2221C47.3169 66.2655 46.9607 66.4011 46.7176 66.3779ZM49.2105 64.9244C49.0729 64.8613 48.6947 64.6787 48.5206 64.4621C48.5206 64.4621 48.7024 64.4059 49.2072 64.7103C49.2072 64.6249 49.2062 64.5391 49.2062 64.4488C49.2062 64.2875 49.2072 64.1439 49.2076 64.0082C49.0883 63.951 48.8361 63.8217 48.7158 63.6712C48.7158 63.6712 48.8515 63.6396 49.2105 63.8488C49.2196 63.2252 49.246 62.8621 49.3064 62.6134C49.3481 62.832 49.3846 63.2119 49.4009 63.8469C49.7537 63.6406 49.8884 63.6712 49.8884 63.6712C49.77 63.8187 49.526 63.946 49.4028 64.0043C49.4066 64.1424 49.4075 64.2875 49.4075 64.4488C49.4075 64.5371 49.4066 64.6215 49.4066 64.7068C49.9052 64.4069 50.0855 64.4621 50.0855 64.4621C49.9143 64.6748 49.5476 64.8549 49.4028 64.9205C49.4004 65.1632 49.3937 65.3848 49.3846 65.5772C49.8175 65.3162 49.9732 65.364 49.9732 65.364C49.8213 65.5525 49.4905 65.7129 49.3773 65.7627C49.3591 66.0824 49.3347 66.2803 49.3074 66.2832C49.3064 66.2832 49.3064 66.2832 49.3064 66.2842C49.2791 66.2832 49.2541 66.0844 49.2359 65.7676C49.1324 65.7212 48.7877 65.5575 48.6309 65.364C48.6309 65.364 48.7887 65.3152 49.2268 65.5816C49.2196 65.3902 49.2134 65.1682 49.2105 64.9244ZM50.9465 65.3941C50.9465 65.3941 51.0903 65.4741 51.2164 65.9832C51.3429 65.8406 51.4915 65.6813 51.6565 65.5047C51.6018 65.3606 51.4613 64.957 51.4868 64.6758C51.4868 64.6758 51.6526 64.7685 51.8003 65.3522C51.8602 65.291 51.9187 65.2293 51.9805 65.1652C52.0908 65.0517 52.1905 64.9516 52.285 64.8548C52.2385 64.7285 52.1503 64.4537 52.1675 64.2593C52.1675 64.2593 52.2879 64.3269 52.3972 64.7424C52.832 64.3082 53.0995 64.0728 53.3119 63.9416C53.1915 64.1251 52.9585 64.4207 52.5338 64.8795C52.9331 64.991 52.9979 65.1139 52.9979 65.1139C52.8128 65.1316 52.552 65.0433 52.4264 64.9955C52.3325 65.0951 52.2342 65.1983 52.123 65.3127C52.0621 65.3754 52.0036 65.4336 51.9451 65.4938C52.5036 65.6453 52.5932 65.8145 52.5932 65.8145C52.3262 65.8407 51.9432 65.702 51.796 65.6438C51.6253 65.8135 51.4705 65.9655 51.3319 66.0948C51.8176 66.225 51.8952 66.3725 51.8952 66.3725C51.6574 66.3947 51.3127 66.2664 51.1991 66.2206C50.9637 66.4332 50.8108 66.5561 50.7907 66.5363C50.7715 66.5166 50.8909 66.3592 51.0961 66.1199C51.0539 66.0123 50.923 65.6453 50.9465 65.3941ZM46.7176 60.2496C46.7176 60.2496 46.7948 60.1011 47.2895 59.9698C47.1519 59.8405 46.9947 59.6886 46.824 59.5179C46.6845 59.5741 46.2919 59.7187 46.0196 59.6935C46.0196 59.6935 46.1097 59.5218 46.6764 59.3689C46.6174 59.3087 46.557 59.249 46.4951 59.1848C46.3849 59.0713 46.2856 58.9682 46.1936 58.871C46.0704 58.9179 45.8034 59.0097 45.615 58.9909C45.615 58.9909 45.6806 58.8681 46.0843 58.7556C45.6624 58.3091 45.4337 58.0332 45.3062 57.8137C45.4846 57.9375 45.7717 58.1788 46.2161 58.614C46.3255 58.205 46.4443 58.1374 46.4443 58.1374C46.4616 58.3288 46.3758 58.5972 46.3293 58.7265C46.4266 58.8222 46.5273 58.9233 46.638 59.0388C46.6984 59.1005 46.756 59.1606 46.814 59.2208C46.9607 58.6455 47.1246 58.5538 47.1246 58.5538C47.1505 58.8286 47.0153 59.2233 46.9597 59.3733C47.1237 59.549 47.2713 59.7103 47.3983 59.8519C47.5239 59.3531 47.6658 59.2731 47.6658 59.2731C47.6889 59.5179 47.5642 59.8716 47.5192 59.9895C47.7272 60.2298 47.8466 60.3892 47.8274 60.4089C47.8073 60.4287 47.6553 60.3068 47.4228 60.0946C47.3169 60.1371 46.9607 60.2737 46.7176 60.2496ZM49.2105 58.796C49.0729 58.7349 48.6947 58.5508 48.5206 58.3332C48.5206 58.3332 48.7024 58.278 49.2072 58.5839C49.2072 58.4966 49.2062 58.4112 49.2062 58.3204C49.2062 58.161 49.2072 58.0155 49.2076 57.8798C49.0883 57.8231 48.8361 57.6928 48.7158 57.5438C48.7158 57.5438 48.8515 57.5112 49.2105 57.7219C49.2196 57.0963 49.246 56.7337 49.3064 56.487C49.3481 56.7036 49.3846 57.0845 49.4009 57.7185C49.7537 57.5117 49.8884 57.5438 49.8884 57.5438C49.77 57.6918 49.526 57.8186 49.4028 57.8769C49.4066 58.0145 49.4075 58.1591 49.4075 58.3204C49.4075 58.4102 49.4066 58.4936 49.4066 58.5789C49.9052 58.279 50.0855 58.3332 50.0855 58.3332C49.9143 58.5474 49.5476 58.7275 49.4028 58.7931C49.4004 59.0358 49.3937 59.2564 49.3846 59.4493C49.8175 59.1888 49.9732 59.2357 49.9732 59.2357C49.8213 59.4251 49.4905 59.5854 49.3773 59.6363C49.3591 59.954 49.3347 60.1519 49.3074 60.1548C49.3064 60.1548 49.3064 60.1558 49.3064 60.1558C49.2791 60.1548 49.2541 59.956 49.2359 59.6397C49.1324 59.5929 48.7877 59.4296 48.6309 59.2357C48.6309 59.2357 48.7887 59.1888 49.2268 59.4552C49.2196 59.2628 49.2134 59.0398 49.2105 58.796ZM44.6096 55.7824V59.0388V68.2499C44.6072 75.9245 38.5403 82.1679 31.0826 82.1679C23.6268 82.1679 17.5589 75.9245 17.557 68.2518V50.2308H19.1746V50.2298H22.1186V50.2308H25.7564V50.2298H27.466V50.2308H30.3976V50.2298H31.7696V50.2308H34.7012V50.2298H36.4108V50.2308H40.0481V50.2298H42.9926V50.2308H44.6096V53.1541V55.7824ZM46.7176 54.2154C46.7176 54.2154 46.7948 54.0674 47.2895 53.9361C47.1519 53.8059 46.9947 53.6539 46.824 53.4832C46.6845 53.5404 46.2919 53.684 46.0196 53.6574C46.0196 53.6574 46.1097 53.4867 46.6764 53.3352C46.6174 53.275 46.557 53.2138 46.4951 53.1502C46.3849 53.0367 46.2856 52.9336 46.1936 52.8359C46.0704 52.8838 45.8034 52.976 45.615 52.9573C45.615 52.9573 45.6806 52.8344 46.0843 52.7214C45.6624 52.2744 45.4337 51.9986 45.3062 51.779C45.4846 51.9039 45.7717 52.1442 46.2161 52.5798C46.3255 52.1703 46.4443 52.1027 46.4443 52.1027C46.4616 52.2951 46.3758 52.562 46.3293 52.6928C46.4266 52.7875 46.5273 52.8897 46.638 53.0031C46.6984 53.0658 46.756 53.126 46.814 53.1867C46.9607 52.6109 47.1246 52.5191 47.1246 52.5191C47.1505 52.7949 47.0153 53.1887 46.9597 53.3396C47.1237 53.5153 47.2713 53.6761 47.3983 53.8177C47.5239 53.3169 47.6658 53.2385 47.6658 53.2385C47.6889 53.4832 47.5642 53.8375 47.5192 53.9559C47.7272 54.1957 47.8466 54.3545 47.8274 54.3743C47.8073 54.3935 47.6553 54.2717 47.4228 54.06C47.3169 54.1029 46.9607 54.2401 46.7176 54.2154ZM49.2105 52.7619C49.0729 52.7002 48.6947 52.5162 48.5206 52.2986C48.5206 52.2986 48.7024 52.2433 49.2072 52.5482C49.2072 52.4629 49.2062 52.3765 49.2062 52.2867C49.2062 52.1264 49.2072 51.9818 49.2076 51.8456C49.0883 51.7884 48.8361 51.6592 48.7158 51.5092C48.7158 51.5092 48.8515 51.4761 49.2105 51.6863C49.2196 51.0626 49.246 50.7 49.3064 50.4513C49.3481 50.6699 49.3846 51.0493 49.4009 51.6843C49.7537 51.4781 49.8884 51.5092 49.8884 51.5092C49.77 51.6562 49.526 51.784 49.4028 51.8422C49.4066 51.9799 49.4075 52.1254 49.4075 52.2867C49.4075 52.3746 49.4066 52.4589 49.4066 52.5433C49.9052 52.2443 50.0855 52.2986 50.0855 52.2986C49.9143 52.5127 49.5476 52.6928 49.4028 52.7584C49.4004 53.0022 49.3937 53.2222 49.3846 53.4146C49.8175 53.1541 49.9732 53.202 49.9732 53.202C49.8213 53.3905 49.4905 53.5508 49.3773 53.6001C49.3591 53.9194 49.3347 54.1182 49.3074 54.1197C49.3064 54.1197 49.3064 54.1197 49.3064 54.1217C49.2791 54.1197 49.2541 53.9218 49.2359 53.6051C49.1324 53.5582 48.7877 53.3949 48.6309 53.202C48.6309 53.202 48.7887 53.1531 49.2268 53.4211C49.2196 53.2281 49.2134 53.0056 49.2105 52.7619ZM50.9465 53.2326C50.9465 53.2326 51.0903 53.3135 51.2164 53.8207C51.3429 53.6791 51.4915 53.5168 51.6565 53.3416C51.6018 53.199 51.4613 52.7949 51.4868 52.5137C51.4868 52.5137 51.6526 52.6065 51.8003 53.1897C51.8602 53.1285 51.9187 53.0668 51.9805 53.0031C52.0908 52.8897 52.1905 52.788 52.285 52.6928C52.2385 52.566 52.1503 52.2912 52.1675 52.0973C52.1675 52.0973 52.2879 52.1644 52.3972 52.5798C52.832 52.1456 53.0995 51.9103 53.3119 51.779C53.1915 51.9631 52.9585 52.2586 52.5338 52.717C52.9331 52.8295 52.9979 52.9513 52.9979 52.9513C52.8128 52.9681 52.552 52.8803 52.4264 52.8324C52.3325 52.9326 52.2342 53.0357 52.123 53.1502C52.0621 53.2128 52.0036 53.2721 51.9451 53.3313C52.5036 53.4832 52.5932 53.652 52.5932 53.652C52.3262 53.6781 51.9432 53.5395 51.796 53.4812C51.6253 53.65 51.4705 53.8029 51.3319 53.9322C51.8176 54.0634 51.8952 54.21 51.8952 54.21C51.6574 54.2327 51.3127 54.1039 51.1991 54.058C50.9637 54.2707 50.8108 54.3935 50.7907 54.3743C50.7715 54.3545 50.8909 54.1967 51.0961 53.9579C51.0539 53.8498 50.923 53.4832 50.9465 53.2326ZM50.9465 59.2677C50.9465 59.2677 51.0903 59.3472 51.2164 59.8554C51.3429 59.7137 51.4915 59.5524 51.6565 59.3772C51.6018 59.2337 51.4613 58.8286 51.4868 58.5484C51.4868 58.5484 51.6526 58.6411 51.8003 59.2243C51.8602 59.1626 51.9187 59.1014 51.9805 59.0388C52.0908 58.9233 52.1905 58.8232 52.285 58.7274C52.2385 58.5997 52.1503 58.3249 52.1675 58.1319C52.1675 58.1319 52.2879 58.1985 52.3972 58.614C52.832 58.1818 53.0995 57.9454 53.3119 57.8137C53.1915 57.9967 52.9585 58.2933 52.5338 58.7506C52.9331 58.8631 52.9979 58.985 52.9979 58.985C52.8128 59.0038 52.552 58.9159 52.4264 58.8671C52.3325 58.9663 52.2342 59.0713 52.123 59.1848C52.0621 59.248 52.0036 59.3067 51.9451 59.3659C52.5036 59.5179 52.5932 59.6866 52.5932 59.6866C52.3262 59.7127 51.9432 59.5731 51.796 59.5149C51.6253 59.6846 51.4705 59.8366 51.3319 59.9664C51.8176 60.0976 51.8952 60.2436 51.8952 60.2436C51.6574 60.2673 51.3127 60.1386 51.1991 60.0917C50.9637 60.3058 50.8108 60.4296 50.7907 60.4089C50.7715 60.3892 50.8909 60.2318 51.0961 59.9935C51.0539 59.8845 50.923 59.5179 50.9465 59.2677ZM48.9718 55.0438V54.3733C48.9051 54.3535 48.8462 54.316 48.7843 54.286L48.3778 54.432L48.9718 55.0438ZM49.6333 55.0438L50.3113 54.3442C50.2494 54.2342 50.2048 54.1182 50.1794 53.9954C50.0318 54.1764 49.8457 54.2998 49.6333 54.3664V55.0438ZM54.3819 60.48L52.285 60.6122C51.9614 60.8554 51.6234 60.9877 51.3065 60.9877C51.1243 60.9877 50.9512 60.9388 50.7897 60.8545L50.3285 61.3296H51.2106C51.3938 61.3296 51.5424 61.4816 51.5424 61.669C51.5424 61.8575 51.3938 62.0095 51.2106 62.0095H47.3936C47.2104 62.0095 47.0618 61.8575 47.0618 61.669C47.0618 61.4816 47.2104 61.3296 47.3936 61.3296H48.2757L47.8519 60.8929L47.6644 60.9038C47.5403 60.9527 47.4118 60.9877 47.2752 60.9877C47.1788 60.9877 47.079 60.9714 46.9789 60.9482L45.1868 61.0607V58.0298C45.2304 59.4759 46.7329 61.2294 47.7507 60.5954L48.5892 61.4584H47.3936C47.2814 61.4584 47.1913 61.5511 47.1913 61.6666C47.1913 61.7801 47.2814 61.8728 47.3936 61.8728H49.3016H51.2125C51.3228 61.8728 51.4129 61.7801 51.4129 61.6666C51.4129 61.5511 51.3228 61.4584 51.2125 61.4584H50.0155L50.8535 60.5954C51.9614 61.2857 53.6436 59.1463 53.3939 57.6543L53.3948 57.6533H53.3939C51.9269 57.3948 49.8203 59.168 50.5658 60.3083L49.503 61.4001V60.179C50.7868 59.8874 50.5102 57.1254 49.3026 56.2467H49.3016C48.0935 57.1254 47.8174 59.8874 49.1012 60.179V61.4001L48.0398 60.3083C48.7843 59.168 46.6773 57.3948 45.2103 57.6533V57.6543C45.1964 57.7362 45.1883 57.8196 45.1868 57.905V57.4076C45.287 57.3918 45.3925 57.3835 45.4999 57.3835C46.1989 57.3835 46.9808 57.7372 47.5623 58.2464L48.0571 58.1142C48.1764 57.3095 48.5446 56.4899 49.1487 56.0478C49.1894 56.0182 49.2398 56 49.2915 56C49.2954 56 49.2992 56 49.3026 56C49.3529 56.003 49.3975 56.0217 49.4358 56.0488C49.8822 56.3764 50.1976 56.9098 50.3817 57.4905L54.9284 56.2714C54.2971 55.7272 53.9125 55.3606 53.2711 54.7512C53.3027 54.5899 53.3359 54.4226 53.3694 54.2495C53.403 54.0758 53.4403 53.8967 53.4787 53.7112C53.5554 53.3377 53.6403 52.9385 53.7395 52.5088L53.5664 52.5714C53.4423 53.0836 53.1872 53.6095 52.8209 54.056C52.3559 54.6234 51.8041 54.9501 51.3084 54.9501C51.1243 54.9501 50.9513 54.9002 50.7907 54.8149L50.3285 55.2905H51.2106C51.3938 55.2905 51.5424 55.443 51.5424 55.6314C51.5424 55.8204 51.3938 55.9719 51.2106 55.9719H47.3936C47.2104 55.9719 47.0618 55.8204 47.0618 55.6314C47.0618 55.443 47.2104 55.2905 47.3936 55.2905H48.2757L47.8073 54.8085C47.6414 54.8973 47.4636 54.9501 47.2752 54.9501C47.1913 54.9501 47.1073 54.9367 47.0201 54.918L45.1868 55.5762V51.9947C45.2304 53.4418 46.7329 55.1958 47.7507 54.5608L48.5892 55.4242H47.3936C47.2814 55.4242 47.1913 55.5175 47.1913 55.6314C47.1913 55.7449 47.2814 55.8382 47.3936 55.8382H49.3016H51.2125C51.3228 55.8382 51.4129 55.7449 51.4129 55.6314C51.4129 55.5175 51.3228 55.4242 51.2125 55.4242H50.0155L50.8535 54.5608C51.9614 55.251 53.6436 53.1127 53.3939 51.6207L53.3948 51.6197H53.3939C51.9269 51.3611 49.8203 53.1344 50.5658 54.2736L49.503 55.3665V54.1444C50.7868 53.8538 50.5102 51.0918 49.3026 50.212H49.3016C48.0935 51.0918 47.8174 53.8538 49.1012 54.1444V55.3665L48.0398 54.2736C48.7843 53.1344 46.6773 51.3611 45.2103 51.6197V51.6207C45.1964 51.7011 45.1883 51.786 45.1868 51.8713V51.3685C45.287 51.3523 45.3925 51.3439 45.4999 51.3439C45.8489 51.3439 46.22 51.4352 46.5771 51.5871L51.2135 47.8941C51.0275 47.8122 50.8324 47.7328 50.6349 47.6548C50.2422 47.4989 49.8386 47.3519 49.4723 47.2147C49.2892 47.1466 49.1151 47.081 48.9564 47.0178C48.9416 46.8669 48.9253 46.6991 48.908 46.52C48.8898 46.3419 48.8706 46.1524 48.8505 45.9575C48.8116 45.5702 48.7695 45.1622 48.7278 44.7833L43.6537 49.6027H40.4689L45.5109 42.1002C45.1974 42.0746 44.8575 42.044 44.5162 42.0119C44.1935 41.9838 43.8709 41.9547 43.5674 41.9285C43.3589 41.9117 43.1599 41.8955 42.9777 41.8836C42.8837 41.7233 42.7903 41.558 42.6973 41.3873C42.4787 40.9871 42.2605 40.5648 42.0458 40.1553C41.9863 40.0428 41.9273 39.9293 41.8698 39.8183L36.7396 49.6027H34.8863L38.1683 38.4353C37.4036 38.5982 36.6236 38.799 35.892 38.8996C35.7501 38.8157 35.6058 38.7156 35.461 38.6075C35.3153 38.499 35.1677 38.3816 35.02 38.2607C34.7257 38.0199 34.427 37.7668 34.1317 37.5546L31.8856 49.6027H30.2806L28.0355 37.5546C27.7402 37.7668 27.4415 38.0199 27.1462 38.2607C26.8518 38.5029 26.5584 38.7314 26.2751 38.8996C26.091 38.8749 25.906 38.8434 25.718 38.8073C25.382 38.7437 25.0421 38.6667 24.6993 38.5907C24.4644 38.5375 24.2309 38.4847 23.9988 38.4353L27.2809 49.6027H25.4275L20.2973 39.8183C20.166 40.067 20.0313 40.324 19.8975 40.5821C19.7551 40.8539 19.6137 41.1248 19.4689 41.3873C19.3769 41.558 19.2829 41.7233 19.1894 41.8836C19.0068 41.8955 18.8083 41.9117 18.5988 41.9285C18.2872 41.9557 17.9535 41.9858 17.6218 42.0159C17.2905 42.0459 16.9602 42.0765 16.6562 42.1002L21.6963 49.6027H18.513L18.1851 49.2914L13.4394 44.7833C13.4183 44.9728 13.3977 45.1686 13.3756 45.3675C13.3138 45.96 13.2544 46.5639 13.2107 47.0178C13.0511 47.081 12.878 47.1466 12.6949 47.2147C12.3286 47.3519 11.9259 47.4989 11.5313 47.6548C11.3343 47.7328 11.1397 47.8122 10.9527 47.8941L15.4687 51.4904C15.9232 51.2699 16.3907 51.1273 16.8264 51.1273L16.8768 51.1283L16.9803 51.1312V52.2389C16.9448 52.3568 16.9031 52.4752 16.8556 52.5951L16.9803 52.6943V55.5762L15.2161 54.9442C15.0094 55.1385 14.7971 55.3137 14.5876 55.4563C14.5109 55.8771 14.1547 56.1895 13.7275 56.1895C13.6273 56.1895 13.5324 56.1692 13.4413 56.1362C13.7745 56.6296 14.0243 57.3233 14.1556 58.126L14.4337 58.2005C15.1542 57.6543 16.0421 57.192 16.8264 57.192L16.8768 57.193L16.9803 57.195V58.3081C16.9276 58.4808 16.8619 58.6559 16.7847 58.8316L16.9803 58.8829V61.0607L15.2774 60.9526C15.0507 61.1722 14.8172 61.3646 14.5876 61.521C14.5109 61.9419 14.1547 62.2542 13.7275 62.2542C13.6316 62.2542 13.5405 62.235 13.4538 62.2049C13.5415 62.3381 13.6254 62.4841 13.7011 62.6425H16.9803V68.2844C16.9803 70.2417 17.3576 72.1077 18.0413 73.8118C17.2895 74.2066 16.5656 75.2057 16.1112 76.2359C15.5963 75.2062 14.8153 74.245 14.0391 73.9505C13.7035 74.7518 13.8603 76.039 14.2529 77.1531C13.1206 76.7248 11.761 76.5605 10.9445 76.9459C11.4249 78.1838 13.4868 79.3956 14.8862 79.5549C14.8709 79.5288 14.8484 79.509 14.8354 79.4799C14.717 79.1957 14.8172 78.8824 15.0488 78.7063C15.0339 78.7009 15.0238 78.6969 15.0075 78.6915C14.9236 78.7759 14.6998 78.9875 14.5075 79.0511C14.5075 79.0511 14.5209 78.9081 14.8599 78.6352C14.625 78.5459 14.3651 78.4438 14.0866 78.3328C13.9845 78.4334 13.7347 78.6688 13.5194 78.7388C13.5194 78.7388 13.5352 78.576 13.9197 78.2657C13.8013 78.2178 13.6829 78.17 13.5597 78.1191C13.4403 78.0703 13.332 78.0254 13.2227 77.9805C13.1134 78.09 12.8099 78.3792 12.552 78.465C12.552 78.465 12.5693 78.2711 13.0319 77.9006C12.7634 77.7881 12.5261 77.6879 12.3195 77.5966C12.2293 77.6869 12.0122 77.8892 11.8276 77.9514C11.8276 77.9514 11.8401 77.8068 12.179 77.535C11.7197 77.3307 11.4139 77.1748 11.1953 77.0371C11.4139 77.0944 11.7509 77.2 12.2385 77.3791C12.1757 76.9424 12.261 76.8299 12.261 76.8299C12.355 77.0041 12.378 77.3026 12.3832 77.4328C12.5937 77.5113 12.8334 77.6045 13.1014 77.7111C13.0156 77.1215 13.1316 76.9695 13.1316 76.9695C13.2601 77.2113 13.2874 77.6243 13.2936 77.7881C13.4039 77.832 13.5132 77.8764 13.6345 77.9267C13.7558 77.9766 13.8723 78.0254 13.9888 78.0742C13.9207 77.5838 14.0171 77.457 14.0171 77.457C14.1221 77.6549 14.1494 77.9919 14.1547 78.1438C14.4318 78.2598 14.6878 78.3698 14.9193 78.4719C14.858 78.0412 14.9428 77.9297 14.9428 77.9297C15.0358 78.1058 15.0588 78.4083 15.0641 78.5356C15.1235 78.5627 15.1705 78.5844 15.2247 78.6086C15.5335 78.5055 15.8724 78.651 16.0038 78.9633C16.0483 79.0729 16.0526 79.1863 16.0402 79.2964C16.1111 79.2934 16.184 79.284 16.2531 79.2549C16.3144 79.2258 16.3628 79.1819 16.4098 79.1385C16.4199 79.1375 16.43 79.1321 16.4391 79.1311C16.3571 79.0699 16.2861 78.9939 16.2386 78.8957C16.2367 78.8967 16.2295 78.9081 16.2286 78.9081C16.2252 78.9071 16.2315 78.8883 16.2296 78.8814C16.2276 78.877 16.2233 78.873 16.2204 78.8676C16.0948 78.5657 16.2142 78.2307 16.4764 78.0639C16.4985 78.0022 16.5148 77.9494 16.5383 77.8838C16.452 77.791 16.255 77.5675 16.1951 77.3766C16.1951 77.3766 16.3326 77.3894 16.593 77.7308C16.6807 77.4891 16.779 77.2217 16.8864 76.9345C16.7847 76.826 16.5656 76.5738 16.4995 76.3597C16.4995 76.3597 16.6552 76.375 16.952 76.7633C16.9985 76.6419 17.045 76.5221 17.0934 76.3962C17.1409 76.2734 17.1855 76.1599 17.231 76.0474C17.1188 75.9295 16.8465 75.6236 16.7655 75.3631C16.7655 75.3631 16.9511 75.3808 17.3087 75.8505C17.417 75.5777 17.5172 75.334 17.6064 75.1228C17.5182 75.0291 17.324 74.806 17.2646 74.6176C17.2646 74.6176 17.4032 74.6294 17.6692 74.9777C17.8634 74.5248 18.012 74.2125 18.1213 74.0077L18.1304 74.0304C18.0748 74.2791 17.9755 74.5988 17.8188 75.0404C18.245 74.9758 18.3548 75.0641 18.3548 75.0641C18.1832 75.1613 17.8917 75.183 17.7661 75.1894C17.6874 75.405 17.5954 75.6517 17.4899 75.9295C18.0695 75.8387 18.2177 75.9596 18.2177 75.9596C17.9789 76.0938 17.5662 76.1209 17.4142 76.1263C17.3715 76.2388 17.3284 76.3503 17.2804 76.4732C17.232 76.6 17.1836 76.7219 17.1361 76.8427C17.6208 76.7697 17.7449 76.8709 17.7449 76.8709C17.5465 76.9824 17.209 77.008 17.069 77.0135C16.9559 77.2996 16.8475 77.5641 16.7497 77.8004C17.1754 77.7358 17.2847 77.8236 17.2847 77.8236C17.1078 77.9233 16.8043 77.944 16.6859 77.9484C16.6816 77.9618 16.6768 77.9711 16.6716 77.9835C16.9621 77.9183 17.2656 78.0589 17.3878 78.351C17.3907 78.3574 17.3897 78.3629 17.3921 78.3688C18.0273 77.4338 18.4837 75.8338 18.3936 74.622C20.6809 79.4602 25.5042 82.796 31.0826 82.796C38.8716 82.796 45.1859 76.299 45.1868 68.2844V64.1572C45.2304 65.6043 46.7329 67.3578 47.7507 66.7238L48.5892 67.5868H47.3936C47.2814 67.5868 47.1913 67.6795 47.1913 67.794C47.1913 67.9075 47.2814 68.0002 47.3936 68.0002H49.3016H51.2125C51.3228 68.0002 51.4129 67.9075 51.4129 67.794C51.4129 67.6795 51.3228 67.5868 51.2125 67.5868H50.0155L50.8535 66.7238C51.9614 67.4141 53.6436 65.2752 53.3939 63.7832L53.3948 63.7822H53.3939C51.9269 63.5232 49.8203 65.2964 50.5658 66.4362L49.503 67.5285V66.3064C50.7868 66.0158 50.5102 63.2543 49.3026 62.3746H49.3016C48.0935 63.2543 47.8174 66.0158 49.1012 66.3064V67.5285L48.0398 66.4362C48.7843 65.2964 46.6773 63.5232 45.2103 63.7822V63.7832C45.1964 63.8646 45.1883 63.948 45.1868 64.0324V62.6425H48.6846C48.8207 62.4614 48.9737 62.2996 49.1487 62.1718C49.1894 62.1417 49.2398 62.1249 49.2915 62.1249C49.2954 62.1249 49.2992 62.1249 49.3026 62.1249C49.3529 62.1279 49.3975 62.1447 49.4358 62.1738C49.6098 62.3006 49.7618 62.4624 49.8966 62.6425H54.1485C54.3891 62.2448 54.5641 61.9656 54.7189 61.7189C55.5819 60.3571 55.9529 60.3818 54.3819 60.48ZM48.9718 60.8214L48.7321 60.8367L48.9718 61.0824V60.8214ZM49.6333 60.78V61.0814L49.945 60.7607L49.6333 60.78ZM39.4775 77.3756L39.1012 77.7027L39.2508 77.2187L38.9348 76.973H39.3164L39.4775 76.5073L39.6209 76.973H40.0346L39.7 77.2187L39.8568 77.7027L39.4775 77.3756ZM40.1847 76.4781L39.8078 76.8033L39.9589 76.3207L39.641 76.074H40.0236L40.1847 75.6078L40.329 76.074H40.7418L40.4071 76.3207L40.5629 76.8033L40.1847 76.4781ZM40.8492 75.6857L40.4738 76.0119L40.6243 75.5279L40.3069 75.2831H40.6895L40.8492 74.8174L40.9939 75.2831H41.4076L41.0726 75.5279L41.2293 76.0119L40.8492 75.6857ZM41.4743 74.7226L41.097 75.0488L41.2485 74.5648L40.9301 74.3191H41.3132L41.4743 73.8533L41.6181 74.3191H42.0309L41.6967 74.5648L41.8525 75.0488L41.4743 74.7226ZM42.0357 73.6525L41.6603 73.9776L41.8094 73.4941L41.4915 73.2494H41.8751L42.0357 72.7831L42.1795 73.2494H42.5923L42.2581 73.4941L42.4139 73.9776L42.0357 73.6525ZM42.5338 72.497L42.1594 72.8226L42.309 72.3386L41.9911 72.0929H42.3737L42.5338 71.6266L42.6781 72.0929H43.0918L42.7572 72.3386L42.913 72.8226L42.5338 72.497ZM42.8886 71.2556L42.5122 71.5817L42.6628 71.0977L42.3454 70.852H42.727L42.8886 70.3853L43.0314 70.852H43.4451L43.111 71.0977L43.2668 71.5817L42.8886 71.2556ZM43.0952 70.0354L42.7188 70.3616L42.8703 69.8776L42.5525 69.6329H42.936L43.0952 69.1661L43.2404 69.6329H43.6532L43.3186 69.8776L43.4744 70.3616L43.0952 70.0354ZM43.1992 68.7374L42.8238 69.063L42.9744 68.5799L42.657 68.3352H43.0395L43.1992 67.868L43.344 68.3352H43.7577L43.4226 68.5799L43.5794 69.063L43.1992 68.7374ZM43.1992 67.4397L42.8238 67.7649L42.9744 67.2809L42.657 67.0371H43.0395L43.1992 66.5704L43.344 67.0371H43.7577L43.4226 67.2809L43.5794 67.7649L43.1992 67.4397ZM43.1992 66.1416L42.8238 66.4673L42.9744 65.9832L42.657 65.7375H43.0395L43.1992 65.2723L43.344 65.7375H43.7577L43.4226 65.9832L43.5794 66.4673L43.1992 66.1416ZM43.1992 64.8425L42.8238 65.1691L42.9744 64.6851L42.657 64.4394H43.0395L43.1992 63.9732L43.344 64.4394H43.7577L43.4226 64.6851L43.5794 65.1691L43.1992 64.8425ZM43.1992 63.5449L42.8238 63.871L42.9744 63.3875L42.657 63.1418H43.0395L43.1992 62.6765L43.344 63.1418H43.7577L43.4226 63.3875L43.5794 63.871L43.1992 63.5449ZM43.1992 62.2468L42.8238 62.5734L42.9744 62.0894L42.657 61.8447H43.0395L43.1992 61.3784L43.344 61.8447H43.7577L43.4226 62.0894L43.5794 62.5734L43.1992 62.2468ZM43.1992 60.9492L42.8238 61.2753L42.9744 60.7913L42.657 60.5456H43.0395L43.1992 60.0808L43.344 60.5456H43.7577L43.4226 60.7913L43.5794 61.2753L43.1992 60.9492ZM43.1992 59.6511L42.8238 59.9772L42.9744 59.4937L42.657 59.248H43.0395L43.1992 58.7807L43.344 59.248H43.7577L43.4226 59.4937L43.5794 59.9772L43.1992 59.6511ZM43.1992 58.353L42.8238 58.6796L42.9744 58.1956L42.657 57.9489H43.0395L43.1992 57.4831L43.344 57.9489H43.7577L43.4226 58.1956L43.5794 58.6796L43.1992 58.353ZM43.1992 57.0554L42.8238 57.3805L42.9744 56.8975L42.657 56.6513H43.0395L43.1992 56.185L43.344 56.6513H43.7577L43.4226 56.8975L43.5794 57.3805L43.1992 57.0554ZM43.1992 55.7573L42.8238 56.0829L42.9744 55.5989L42.657 55.3532H43.0395L43.1992 54.8869L43.344 55.3532H43.7577L43.4226 55.5989L43.5794 56.0829L43.1992 55.7573ZM43.1992 54.4577L42.8238 54.7848L42.9744 54.3008L42.657 54.0551H43.0395L43.1992 53.5893L43.344 54.0551H43.7577L43.4226 54.3008L43.5794 54.7848L43.1992 54.4577ZM43.1992 53.1605L42.8238 53.4867L42.9744 53.0022L42.657 52.7574H43.0395L43.1992 52.2912L43.344 52.7574H43.7577L43.4226 53.0022L43.5794 53.4867L43.1992 53.1605ZM39.5591 51.8624L39.1827 52.189L39.3337 51.7041L39.0159 51.4593H39.3975L39.5591 50.9931L39.7029 51.4593H40.1157L39.782 51.7041L39.9378 52.189L39.5591 51.8624ZM40.7724 51.8624L40.3961 52.189L40.5466 51.7041L40.2298 51.4593H40.6114L40.7724 50.9931L40.9158 51.4593H41.3295L40.9949 51.7041L41.1516 52.189L40.7724 51.8624ZM41.9863 51.8624L41.61 52.189L41.7605 51.7041L41.4431 51.4593H41.8252L41.9863 50.9931L42.1297 51.4593H42.5434L42.2087 51.7041L42.3655 52.189L41.9863 51.8624ZM43.1992 51.8624L42.8238 52.189L42.9744 51.7041L42.657 51.4593H43.0395L43.1992 50.9931L43.344 51.4593H43.7577L43.4226 51.7041L43.5794 52.189L43.1992 51.8624ZM18.967 51.8624L19.3433 52.189L19.1918 51.7041L19.5101 51.4593H19.1271L18.967 50.9931L18.8231 51.4593H18.4094L18.7445 51.7041L18.5877 52.189L18.967 51.8624ZM20.1808 51.8624L20.5572 52.189L20.4057 51.7041L20.7236 51.4593H20.3419L20.1808 50.9931L20.0375 51.4593H19.6238L19.9574 51.7041L19.8016 52.189L20.1808 51.8624ZM21.3942 51.8624L21.7701 52.189L21.6195 51.7041L21.9374 51.4593H21.5558L21.3942 50.9931L21.2504 51.4593H20.8376L21.1713 51.7041L21.0155 52.189L21.3942 51.8624ZM22.6081 51.8624L22.9835 52.189L22.8334 51.7041L23.1503 51.4593H22.7687L22.6081 50.9931L22.4643 51.4593H22.0515L22.3851 51.7041L22.2284 52.189L22.6081 51.8624ZM23.821 51.8624L24.1974 52.189L24.0478 51.7041L24.3642 51.4593H23.9821L23.821 50.9931L23.6782 51.4593H23.2654L23.5986 51.7041L23.4418 52.189L23.821 51.8624ZM25.0349 51.8624L25.4112 52.189L25.2616 51.7041L25.578 51.4593H25.196L25.0349 50.9931L24.8915 51.4593H24.4778L24.8124 51.7041L24.6556 52.189L25.0349 51.8624ZM26.2487 51.8624L26.6251 52.189L26.4745 51.7041L26.7914 51.4593H26.4098L26.2487 50.9931L26.1044 51.4593H25.6917L26.0253 51.7041L25.8705 52.189L26.2487 51.8624ZM27.4621 51.8624L27.8394 52.189L27.6884 51.7041L28.0062 51.4593H27.6237L27.4621 50.9931L27.3183 51.4593H26.9055L27.2402 51.7041L27.0843 52.189L27.4621 51.8624ZM28.6769 51.8624L29.0514 52.189L28.9023 51.7041L29.2201 51.4593H28.8366L28.6769 50.9931L28.5322 51.4593H28.1204L28.4535 51.7041L28.2968 52.189L28.6769 51.8624ZM29.8908 51.8624L30.2662 52.189L30.1156 51.7041L30.433 51.4593H30.05L29.8908 50.9931L29.746 51.4593H29.3323L29.6674 51.7041L29.5107 52.189L29.8908 51.8624ZM31.1037 51.8624L31.48 52.189L31.3295 51.7041L31.6469 51.4593H31.2648L31.1037 50.9931L30.9604 51.4593H30.5466L30.8813 51.7041L30.7245 52.189L31.1037 51.8624ZM18.967 53.1605L19.3433 53.4867L19.1918 53.0022L19.5101 52.7574H19.1271L18.967 52.2912L18.8231 52.7574H18.4094L18.7445 53.0022L18.5877 53.4867L18.967 53.1605ZM18.967 54.4577L19.3433 54.7848L19.1918 54.3008L19.5101 54.0551H19.1271L18.967 53.5893L18.8231 54.0551H18.4094L18.7445 54.3008L18.5877 54.7848L18.967 54.4577ZM18.967 55.7573L19.3433 56.0829L19.1918 55.5989L19.5101 55.3532H19.1271L18.967 54.8869L18.8231 55.3532H18.4094L18.7445 55.5989L18.5877 56.0829L18.967 55.7573ZM38.3452 51.8624L37.9698 52.189L38.1189 51.7041L37.802 51.4593H38.1846L38.3452 50.9931L38.489 51.4593H38.9018L38.5686 51.7041L38.7249 52.189L38.3452 51.8624ZM37.1313 51.8624L36.756 52.189L36.9055 51.7041L36.5891 51.4593H36.9712L37.1313 50.9931L37.2752 51.4593H37.6879L37.3547 51.7041L37.5115 52.189L37.1313 51.8624ZM35.9184 51.8624L35.5421 52.189L35.6917 51.7041L35.3752 51.4593H35.7573L35.9184 50.9931L36.0618 51.4593H36.4755L36.1399 51.7041L36.2967 52.189L35.9184 51.8624ZM34.7046 51.8624L34.3277 52.189L34.4788 51.7041L34.1609 51.4593H34.5435L34.7046 50.9931L34.8479 51.4593H35.2616L34.9261 51.7041L35.0828 52.189L34.7046 51.8624ZM33.4902 51.8624L33.1139 52.189L33.2639 51.7041L32.947 51.4593H33.3296L33.4902 50.9931L33.635 51.4593H34.0468L33.7131 51.7041L33.8689 52.189L33.4902 51.8624ZM32.2763 51.8624L31.9 52.189L32.051 51.7041L31.7332 51.4593H32.1167L32.2763 50.9931L32.4211 51.4593H32.833L32.4998 51.7041L32.6556 52.189L32.2763 51.8624ZM19.6329 72.497L20.0078 72.8226L19.8582 72.3386L20.1751 72.0929H19.7925L19.6329 71.6266L19.4881 72.0929H19.0763L19.41 72.3386L19.2532 72.8226L19.6329 72.497ZM20.1305 73.6525L20.5068 73.9776L20.3573 73.4941L20.6737 73.2494H20.2921L20.1305 72.7831L19.9876 73.2494H19.5749L19.909 73.4941L19.7522 73.9776L20.1305 73.6525ZM20.6928 74.7226L21.0682 75.0488L20.9186 74.5648L21.237 74.3191H20.853L20.6928 73.8533L20.549 74.3191H20.1363L20.4704 74.5648L20.3136 75.0488L20.6928 74.7226ZM21.3171 75.6857L21.6934 76.0119L21.5429 75.5279L21.8602 75.2831H21.4772L21.3171 74.8174L21.1732 75.2831H20.7595L21.0946 75.5279L20.9378 76.0119L21.3171 75.6857ZM21.9829 76.4781L22.3573 76.8033L22.2083 76.3207L22.5242 76.074H22.1426L21.9829 75.6078L21.8382 76.074H21.4254L21.76 76.3207L21.6033 76.8033L21.9829 76.4781ZM22.6891 77.3756L23.0655 77.7027L22.9144 77.2187L23.2323 76.973H22.8507L22.6891 76.5073L22.5453 76.973H22.1325L22.4662 77.2187L22.3104 77.7027L22.6891 77.3756ZM24.3953 78.8967L24.7717 79.2219L24.6202 78.7374L24.938 78.4926H24.5555L24.3953 78.0264L24.2501 78.4926H23.8483L23.7054 78.0318L24.0224 77.7861H23.6407L23.4792 77.3204L23.3354 77.7861H22.9226L23.2572 78.0318L23.1009 78.5158L23.4792 78.1897L23.8555 78.5158L23.8512 78.503L24.1719 78.7374L24.0161 79.2219L24.3953 78.8967ZM25.3302 79.5811L25.7065 79.9067L25.556 79.4227L25.8734 79.178H25.4912L25.3302 78.7117L25.1868 79.178H24.7731L25.1087 79.4227L24.9519 79.9067L25.3302 79.5811ZM26.3705 80.0522L26.7459 80.3774L26.5958 79.8934L26.9136 79.6496H26.5301L26.3705 79.1829L26.2267 79.6496H25.8139L26.1476 79.8934L25.9908 80.3774L26.3705 80.0522ZM27.3054 80.4366L27.6826 80.7627L27.5326 80.2787L27.8495 80.034H27.4669L27.3054 79.5682L27.1615 80.034H26.7488L27.0834 80.2787L26.9276 80.7627L27.3054 80.4366ZM28.3251 80.7583L28.7014 81.0844L28.5504 80.6004L28.8682 80.3557H28.4866L28.3251 79.8899L28.1803 80.3557H27.7684L28.1031 80.6004L27.9463 81.0844L28.3251 80.7583ZM29.4061 80.9502L29.7825 81.2768L29.6319 80.7928L29.9488 80.5471H29.5672L29.4061 80.0818L29.2628 80.5471H28.85L29.1837 80.7928L29.0269 81.2768L29.4061 80.9502ZM30.5088 81.08L30.8851 81.4051L30.7336 80.9211L31.0515 80.6759H30.6689L30.5088 80.2096L30.3645 80.6759H29.9517L30.2863 80.9211L30.1295 81.4051L30.5088 81.08ZM37.7728 78.8967L37.3955 79.2219L37.547 78.7374L37.2286 78.4926H37.6117L37.7728 78.0264L37.9161 78.4926H38.3179L38.4607 78.0318L38.1448 77.7861H38.5264L38.688 77.3204L38.8308 77.7861H39.2445L38.9099 78.0318L39.0657 78.5158L38.688 78.1897L38.3116 78.5158L38.314 78.503L37.9943 78.7374L38.151 79.2219L37.7728 78.8967ZM36.837 79.5811L36.4606 79.9067L36.6102 79.4227L36.2938 79.178H36.6759L36.837 78.7117L36.9803 79.178H37.3931L37.0594 79.4227L37.2152 79.9067L36.837 79.5811ZM35.7962 80.0522L35.4198 80.3774L35.5713 79.8934L35.2535 79.6496H35.6351L35.7962 79.1829L35.9414 79.6496H36.3532L36.0196 79.8934L36.1754 80.3774L35.7962 80.0522ZM34.8613 80.4366L34.484 80.7627L34.6355 80.2787L34.3177 80.034H34.7003L34.8613 79.5682L35.0047 80.034H35.4184L35.0828 80.2787L35.2396 80.7627L34.8613 80.4366ZM33.8416 80.7583L33.4653 81.0844L33.6158 80.6004L33.2989 80.3557H33.6805L33.8416 79.8899L33.9849 80.3557H34.3987L34.0641 80.6004L34.2208 81.0844L33.8416 80.7583ZM32.7601 80.9502L32.3847 81.2768L32.5352 80.7928L32.2169 80.5471H32.599L32.7601 80.0818L32.9043 80.5471H33.3171L32.9835 80.7928L33.1393 81.2768L32.7601 80.9502ZM31.6574 81.08L31.2811 81.4051L31.4326 80.9211L31.1148 80.6759H31.4983L31.6574 80.2096L31.8027 80.6759H32.2145L31.8808 80.9211L32.0366 81.4051L31.6574 81.08ZM18.967 67.4397L19.3433 67.7649L19.1918 67.2809L19.5101 67.0371H19.1271L18.967 66.5704L18.8231 67.0371H18.4094L18.7445 67.2809L18.5877 67.7649L18.967 67.4397ZM18.967 66.1416L19.3433 66.4673L19.1918 65.9832L19.5101 65.7375H19.1271L18.967 65.2723L18.8231 65.7375H18.4094L18.7445 65.9832L18.5877 66.4673L18.967 66.1416ZM18.967 64.8425L19.3433 65.1691L19.1918 64.6851L19.5101 64.4394H19.1271L18.967 63.9732L18.8231 64.4394H18.4094L18.7445 64.6851L18.5877 65.1691L18.967 64.8425ZM18.967 63.5449L19.3433 63.871L19.1918 63.3875L19.5101 63.1418H19.1271L18.967 62.6765L18.8231 63.1418H18.4094L18.7445 63.3875L18.5877 63.871L18.967 63.5449ZM18.967 62.2468L19.3433 62.5734L19.1918 62.0894L19.5101 61.8447H19.1271L18.967 61.3784L18.8231 61.8447H18.4094L18.7445 62.0894L18.5877 62.5734L18.967 62.2468ZM18.967 60.9492L19.3433 61.2753L19.1918 60.7913L19.5101 60.5456H19.1271L18.967 60.0808L18.8231 60.5456H18.4094L18.7445 60.7913L18.5877 61.2753L18.967 60.9492ZM18.967 59.6511L19.3433 59.9772L19.1918 59.4937L19.5101 59.248H19.1271L18.967 58.7807L18.8231 59.248H18.4094L18.7445 59.4937L18.5877 59.9772L18.967 59.6511ZM18.967 58.353L19.3433 58.6796L19.1918 58.1956L19.5101 57.9489H19.1271L18.967 57.4831L18.8231 57.9489H18.4094L18.7445 58.1956L18.5877 58.6796L18.967 58.353ZM18.967 57.0554L19.3433 57.3805L19.1918 56.8975L19.5101 56.6513H19.1271L18.967 56.185L18.8231 56.6513H18.4094L18.7445 56.8975L18.5877 57.3805L18.967 57.0554ZM18.967 68.7374L19.3433 69.063L19.1918 68.5799L19.5101 68.3352H19.1271L18.967 67.868L18.8231 68.3352H18.4094L18.7445 68.5799L18.5877 69.063L18.967 68.7374ZM19.0715 70.0354L19.4464 70.3616L19.2968 69.8776L19.6137 69.6329H19.2311L19.0715 69.1661L18.9267 69.6329H18.513L18.8486 69.8776L18.6918 70.3616L19.0715 70.0354ZM19.2786 71.2556L19.655 71.5817L19.5044 71.0977L19.8218 70.852H19.4397L19.2786 70.3853L19.1348 70.852H18.722L19.0552 71.0977L18.9003 71.5817L19.2786 71.2556ZM20.9762 53.7102V68.2894H20.9772C20.9772 74.0324 25.5013 78.6885 31.0826 78.6885C36.6648 78.6885 41.189 74.0324 41.19 68.2894V53.7102H20.9762ZM40.5701 68.1606C40.5677 73.5523 36.3221 77.9223 31.0826 77.9223C25.845 77.9223 21.5985 73.5523 21.5975 68.1606V63.5345H40.5701V68.1606ZM40.5701 62.7505H21.5975V54.4764H21.5994H40.5677H40.5701V62.7505ZM31.1018 59.2588L31.9849 60.0177L31.632 58.8972L32.3737 58.3194H31.4709L31.1018 57.2271L30.7681 58.3194H29.7925L30.5749 58.8972L30.2115 60.0177L31.1018 59.2588ZM39.1252 88.4078C38.8692 88.5139 38.7752 88.7877 38.8817 89.0586C38.9919 89.3383 39.2479 89.4666 39.5006 89.3605C39.7537 89.2545 39.8524 88.9791 39.7431 88.6994C39.6353 88.4295 39.3793 88.3017 39.1252 88.4078Z" fill="#004F9F"/>
<path d="M77.7521 82V54.7273H86.0085V59.7344H86.3104C86.8786 58.0772 87.8374 56.7692 89.1868 55.8104C90.5362 54.8516 92.1461 54.3722 94.0163 54.3722C95.9103 54.3722 97.532 54.8575 98.8814 55.8281C100.231 56.7988 101.089 58.1009 101.456 59.7344H101.74C102.249 58.1127 103.243 56.8165 104.723 55.8459C106.203 54.8634 107.949 54.3722 109.961 54.3722C112.541 54.3722 114.637 55.2008 116.246 56.858C117.856 58.5033 118.661 60.7642 118.661 63.6406V82H109.979V65.6293C109.979 64.268 109.629 63.2322 108.931 62.522C108.233 61.8 107.327 61.4389 106.214 61.4389C105.019 61.4389 104.078 61.8295 103.391 62.6108C102.717 63.3802 102.379 64.416 102.379 65.718V82H94.0341V65.5405C94.0341 64.2739 93.6908 63.2737 93.0043 62.5398C92.3177 61.8059 91.4122 61.4389 90.2876 61.4389C89.5301 61.4389 88.8613 61.6224 88.2812 61.9893C87.7012 62.3445 87.2455 62.8535 86.9141 63.5163C86.5945 64.1792 86.4347 64.9605 86.4347 65.8601V82H77.7521ZM147.852 63.0547L139.879 63.2678C139.796 62.6996 139.571 62.1965 139.205 61.7585C138.838 61.3087 138.358 60.9595 137.766 60.7109C137.186 60.4505 136.512 60.3203 135.742 60.3203C134.736 60.3203 133.878 60.5215 133.168 60.924C132.469 61.3265 132.126 61.871 132.138 62.5575C132.126 63.0902 132.339 63.5518 132.777 63.9425C133.227 64.3331 134.026 64.6468 135.174 64.8835L140.43 65.8778C143.152 66.3987 145.176 67.2628 146.502 68.4702C147.84 69.6776 148.514 71.2756 148.526 73.2642C148.514 75.1345 147.958 76.7621 146.857 78.147C145.768 79.532 144.277 80.6091 142.383 81.3786C140.489 82.1361 138.323 82.5149 135.884 82.5149C131.99 82.5149 128.918 81.7159 126.669 80.1179C124.432 78.508 123.153 76.3537 122.834 73.6548L131.41 73.4418C131.599 74.4361 132.09 75.1937 132.884 75.7145C133.677 76.2353 134.689 76.4957 135.92 76.4957C137.032 76.4957 137.938 76.2886 138.636 75.8743C139.335 75.46 139.69 74.9096 139.702 74.223C139.69 73.6075 139.418 73.1162 138.885 72.7493C138.352 72.3705 137.518 72.0746 136.381 71.8615L131.623 70.956C128.888 70.4588 126.853 69.5414 125.515 68.2038C124.177 66.8544 123.514 65.138 123.526 63.0547C123.514 61.2318 124 59.6752 124.982 58.3849C125.965 57.0829 127.362 56.0885 129.173 55.402C130.984 54.7154 133.12 54.3722 135.582 54.3722C139.276 54.3722 142.188 55.1475 144.318 56.6982C146.449 58.237 147.627 60.3558 147.852 63.0547Z" fill="#FEFEFE"/>
<path d="M161.449 90.9134C164.761 94.1076 169.868 96 174.471 96C185.528 96 189.175 88.5473 189.175 80.3852V53.7695H184.068V58.2649H183.956C181.935 54.7748 178.175 53 174.358 53C166.22 53 161 59.5655 161 67.6095C161 75.654 166.276 82.0418 174.414 82.0418C178.175 82.0418 181.823 80.3261 183.787 77.1915H183.899V80.7997C183.899 86.5957 181.542 91.1497 174.527 91.1497C170.879 91.1497 167.118 89.3168 164.817 86.5958L161.449 90.9134ZM246 53.7695H240.388L232.53 75.8312H232.418L224.616 53.7695H218.779L229.612 81.805H235.337L246 53.7695ZM219.832 67.7277C219.832 59.0924 213.602 53 205.464 53C197.326 53 191.152 59.0924 191.152 67.7277C191.152 76.3634 197.326 82.574 205.464 82.574C213.602 82.574 219.832 76.3634 219.832 67.7277ZM214.332 67.7277C214.332 73.0506 211.188 77.9009 205.464 77.9009C199.795 77.9009 196.596 73.0506 196.596 67.7277C196.596 62.4043 199.795 57.6135 205.464 57.6135C211.188 57.6135 214.332 62.4043 214.332 67.7277ZM166.444 67.4914C166.444 62.1089 169.7 57.6135 175.256 57.6135C180.645 57.6135 184.292 62.1684 184.292 67.4914C184.292 73.0506 180.7 77.3687 175.256 77.3687C169.7 77.3687 166.444 72.6371 166.444 67.4914Z" fill="#FEFEFE"/>
<path d="M283.566 59.9714V81.2561H288.861V67.009C288.861 62.4884 291.282 58.3122 296.352 58.3122C297.197 58.3122 298.099 58.4265 298.774 58.5979L299 53.6201C298.38 53.4487 297.648 53.391 296.916 53.391C293.31 53.391 290.213 55.5661 288.748 58.7122H288.579C288.579 57.5683 288.466 55.5085 288.354 54.1354H283.34C283.509 55.909 283.566 58.5408 283.566 59.9714ZM258.238 76.9646C260.323 80.226 264.097 82 267.871 82C276.095 82 281.334 75.5916 281.334 67.6381C281.334 59.6281 275.926 53.391 267.984 53.391C263.59 53.391 260.266 55.5661 258.464 58.1974H258.295V38H253V81.2561H258.126V76.9646H258.238ZM275.87 67.6381C275.87 72.7307 272.771 77.4794 266.97 77.4794C261.563 77.4794 257.957 72.9026 257.957 67.6958C257.957 62.4884 261.563 57.854 266.97 57.854C272.771 57.854 275.87 62.5461 275.87 67.6381Z" fill="#FEFEFE"/>
<path d="M159.381 77.6835C159.381 75.0894 157.351 73 154.691 73C152.03 73 150 75.1618 150 77.756C150 80.2772 152.1 82.439 154.691 82.439C157.351 82.439 159.381 80.2048 159.381 77.6835Z" fill="#FEFEFE"/>
<path d="M249.591 76.6835C249.591 74.0894 247.561 72 244.901 72C242.24 72 240.209 74.1618 240.209 76.756C240.209 79.2772 242.31 81.439 244.901 81.439C247.561 81.439 249.591 79.2048 249.591 76.6835Z" fill="#FEFEFE"/>
</svg>
